<svg width="178" height="133" viewBox="0 0 178 133" fill="none" xmlns="http://www.w3.org/2000/svg">
<path id="left" d="M9.46591 74.7273L0.659088 74.7273L0.659088 26.5739C0.659088 21.6023 1.83096 17.1634 4.17471 13.2571C6.49479 9.37453 9.77367 6.30871 14.0114 4.05966C18.2491 1.83428 23.2206 0.721591 28.9261 0.721591C34.6316 0.721591 39.6032 1.83428 43.8409 4.05966C48.0786 6.30871 51.3693 9.37453 53.7131 13.2571C56.0331 17.1634 57.1932 21.6023 57.1932 26.5739L57.1932 74.7273H48.3864L48.3864 27.2841C48.3864 23.733 47.6051 20.5724 46.0426 17.8026C44.4801 15.0563 42.2547 12.8902 39.3665 11.304C36.4545 9.74148 32.9744 8.96023 28.9261 8.96023C24.8778 8.96023 21.3977 9.74148 18.4858 11.304C15.5739 12.8902 13.3485 15.0563 11.8097 17.8026C10.2472 20.5724 9.46591 23.733 9.46591 27.2841L9.46591 74.7273Z" fill="white"/>
<path id="right" d="M168.534 58.2727H177.341V106.426C177.341 111.398 176.169 115.837 173.825 119.743C171.505 123.625 168.226 126.691 163.989 128.94C159.751 131.166 154.779 132.278 149.074 132.278C143.368 132.278 138.397 131.166 134.159 128.94C129.921 126.691 126.631 123.625 124.287 119.743C121.967 115.837 120.807 111.398 120.807 106.426V58.2727H129.614V105.716C129.614 109.267 130.395 112.428 131.957 115.197C133.52 117.944 135.745 120.11 138.634 121.696C141.545 123.259 145.026 124.04 149.074 124.04C153.122 124.04 156.602 123.259 159.514 121.696C162.426 120.11 164.652 117.944 166.19 115.197C167.753 112.428 168.534 109.267 168.534 105.716V58.2727Z" fill="white"/>
<path id="center" d="M129.818 64.5455C129.818 54.7273 128.045 46.2424 124.5 39.0909C120.955 31.9394 116.091 26.4242 109.909 22.5455C103.727 18.6667 96.6667 16.7273 88.7273 16.7273C80.7879 16.7273 73.7273 18.6667 67.5455 22.5455C61.3636 26.4242 56.5 31.9394 52.9545 39.0909C49.4091 46.2424 47.6364 54.7273 47.6364 64.5455C47.6364 74.3636 49.4091 82.8485 52.9545 90C56.5 97.1515 61.3636 102.667 67.5455 106.545C73.7273 110.424 80.7879 112.364 88.7273 112.364C96.6667 112.364 103.727 110.424 109.909 106.545C116.091 102.667 120.955 97.1515 124.5 90C128.045 82.8485 129.818 74.3636 129.818 64.5455ZM118.909 64.5455C118.909 72.6061 117.561 79.4091 114.864 84.9545C112.197 90.5 108.576 94.697 104 97.5455C99.4545 100.394 94.3636 101.818 88.7273 101.818C83.0909 101.818 77.9848 100.394 73.4091 97.5455C68.8636 94.697 65.2424 90.5 62.5455 84.9545C59.8788 79.4091 58.5455 72.6061 58.5455 64.5455C58.5455 56.4849 59.8788 49.6818 62.5455 44.1364C65.2424 38.5909 68.8636 34.3939 73.4091 31.5455C77.9848 28.697 83.0909 27.2727 88.7273 27.2727C94.3636 27.2727 99.4545 28.697 104 31.5455C108.576 34.3939 112.197 38.5909 114.864 44.1364C117.561 49.6818 118.909 56.4849 118.909 64.5455Z" fill="white"/>
</svg>
