<svg width="200" height="122" viewBox="0 0 200 122" fill="none" xmlns="http://www.w3.org/2000/svg">
<!-- <rect width="200" height="122" fill="#1E1E1E"/> -->
<g id="26160971_4l50_68qb_211202 2" clip-path="url(#clip0_0_1)">
<g id="Group">
<g id="layer_3">
<g id="Clip path group">
<mask id="mask0_0_1" style="mask-type:luminance" maskUnits="userSpaceOnUse" x="0" y="0" width="200" height="122">
<g id="SVGID_00000077283932440843401680000014491191751515782315_">
<path id="Vector" d="M200 0H0V121.69H200V0Z" fill="white"/>
</g>
</mask>
<g mask="url(#mask0_0_1)">
<path id="Vector_2" d="M142.001 85.755C141.429 85.152 140.213 84.915 139 85.087C138.993 85.088 138.986 85.089 138.979 85.09C138.778 85.119 138.577 85.16 138.38 85.212C138.379 85.212 138.377 85.213 138.376 85.213C138.277 85.239 138.18 85.268 138.083 85.3C138.081 85.301 138.079 85.301 138.077 85.302H138.078C137.622 85.453 137.191 85.668 136.825 85.95C136.167 86.46 135.731 86.96 135.443 87.377C136.04 85.336 137.251 84.398 138.455 83.991C138.905 84.236 139.236 84.517 139.438 84.717C139.447 84.726 139.456 84.735 139.465 84.744C139.48 84.759 139.494 84.773 139.507 84.787C139.551 84.833 139.587 84.873 139.614 84.904C139.616 84.906 139.618 84.908 139.619 84.91C139.636 84.93 139.649 84.945 139.659 84.957C139.661 84.959 139.663 84.962 139.664 84.964C139.668 84.969 139.671 84.973 139.673 84.976C139.675 84.978 139.678 84.982 139.678 84.982C139.667 84.949 139.655 84.915 139.642 84.879C139.63 84.848 139.617 84.816 139.604 84.783C139.603 84.78 139.602 84.777 139.6 84.774C139.482 84.492 139.288 84.153 138.999 83.841C140.38 83.539 141.623 83.838 141.746 83.838C141.755 83.838 141.762 83.837 141.767 83.836C141.768 83.835 141.769 83.835 141.77 83.834C141.773 83.832 141.776 83.831 141.777 83.828C141.778 83.827 141.778 83.826 141.778 83.825C141.779 83.822 141.778 83.82 141.776 83.817C141.775 83.816 141.775 83.815 141.774 83.813C141.772 83.809 141.768 83.805 141.763 83.801C141.762 83.8 141.761 83.799 141.759 83.797C141.753 83.792 141.745 83.786 141.736 83.78C141.729 83.776 141.721 83.771 141.713 83.767C141.71 83.765 141.707 83.764 141.703 83.762C141.693 83.756 141.681 83.751 141.669 83.745C141.667 83.744 141.666 83.743 141.664 83.743C141.638 83.731 141.61 83.719 141.576 83.705C141.576 83.705 141.572 83.704 141.571 83.704C141.167 83.551 140.177 83.343 138.648 83.518C138.381 83.311 138.058 83.136 137.671 83.028C137.575 83.001 137.48 82.982 137.387 82.967C138.897 81.447 140.35 81.487 140.63 81.472C140.642 81.471 140.65 81.469 140.657 81.467C140.659 81.466 140.661 81.465 140.662 81.464C140.666 81.462 140.669 81.459 140.671 81.457C140.672 81.456 140.672 81.455 140.673 81.454C140.674 81.45 140.673 81.445 140.669 81.439C140.665 81.433 140.658 81.427 140.65 81.421C140.649 81.42 140.648 81.42 140.647 81.419C140.459 81.281 139.265 80.974 137.647 81.712C136.836 82.082 136.239 82.68 135.817 83.252C135.796 83.264 135.775 83.276 135.755 83.289C135.749 83.292 135.744 83.295 135.738 83.299C135.64 83.359 135.546 83.426 135.455 83.499C135.531 81.39 136.97 79.484 136.97 79.484C136.872 79.545 136.779 79.61 136.688 79.677C136.685 79.68 136.681 79.682 136.677 79.684C136.669 79.691 136.656 79.701 136.641 79.713C135.149 80.849 134.584 82.754 134.374 84.161C133.899 81.507 134.847 79.44 134.979 78.973C134.979 78.972 134.979 78.972 134.979 78.971C134.984 78.954 134.987 78.939 134.989 78.927C134.99 78.923 134.99 78.92 134.991 78.916C134.993 78.905 134.994 78.895 134.993 78.888C134.993 78.887 134.992 78.886 134.992 78.885C134.991 78.88 134.988 78.876 134.985 78.875C134.984 78.875 134.983 78.874 134.982 78.874C134.97 78.872 134.949 78.884 134.916 78.913C134.916 78.913 134.914 78.916 134.913 78.917C134.902 78.927 134.891 78.937 134.877 78.951C133.51 80.286 133.37 82.743 133.454 84.377C132.018 81.763 130 81.587 128.857 82.619C128.855 82.62 128.851 82.623 128.851 82.623C128.845 82.628 128.84 82.634 128.835 82.639C128.789 82.682 128.743 82.726 128.7 82.773C128.494 82.996 130.209 81.372 132.385 84.162C132.891 84.811 133.387 86.398 133.635 87.39C133.541 87.194 133.434 87.01 133.313 86.844C133.026 86.122 132.371 84.855 131.114 84.103C131.092 84.089 131.07 84.076 131.047 84.063C130.825 83.936 130.599 83.838 130.372 83.767H130.374C130.372 83.766 130.37 83.766 130.367 83.765C130.271 83.735 130.175 83.71 130.079 83.69C130.068 83.688 130.057 83.685 130.046 83.683C129.949 83.663 129.852 83.648 129.756 83.637C129.755 83.637 129.754 83.637 129.754 83.637C129.754 83.637 129.753 83.637 129.752 83.637C128.263 83.479 126.873 84.422 126.59 85.951C126.586 85.971 126.584 85.986 126.584 85.995C126.584 85.996 126.584 85.997 126.584 85.997C126.584 86 126.585 86.002 126.585 86.004C126.585 86.005 126.585 86.007 126.586 86.008C126.587 86.009 126.587 86.009 126.588 86.009C126.589 86.01 126.59 86.01 126.592 86.009C126.593 86.009 126.593 86.008 126.594 86.008C126.602 86.003 126.614 85.987 126.632 85.96C126.632 85.959 126.633 85.959 126.633 85.959C126.635 85.956 126.637 85.953 126.639 85.95C126.804 85.701 127.361 84.732 128.476 84.265C128.476 84.265 130.554 84.079 132.177 86.064C132.114 86.046 132.05 86.031 131.986 86.017C131.988 86.017 131.991 86.017 131.993 86.017C131.985 86.015 131.977 86.014 131.969 86.013C131.935 86.006 131.901 86.001 131.867 85.996C131.82 85.988 131.773 85.981 131.725 85.975C131.684 85.97 131.644 85.966 131.602 85.963C131.557 85.959 131.512 85.957 131.466 85.956C131.426 85.954 131.386 85.952 131.346 85.952C131.268 85.952 131.19 85.954 131.112 85.959C130.858 85.975 130.604 86.019 130.359 86.086C129.99 86.002 129.596 85.951 129.179 85.951C127.29 85.951 126.178 86.559 125.795 86.855C125.795 86.855 125.794 86.856 125.793 86.856C125.79 86.859 125.787 86.861 125.784 86.864C125.687 86.94 125.64 86.994 125.643 87.008C125.643 87.009 125.643 87.01 125.643 87.01C125.644 87.011 125.646 87.012 125.647 87.012C125.648 87.012 125.649 87.013 125.65 87.013C125.654 87.013 125.659 87.011 125.666 87.008C125.793 86.955 127.286 86.297 129.259 86.604C129.182 86.661 129.109 86.721 129.042 86.785C128.247 87.54 128.077 88.359 128.041 88.657V88.659C128.041 88.662 128.04 88.664 128.04 88.666C128.039 88.672 128.039 88.677 128.038 88.683C128.036 88.699 128.035 88.712 128.034 88.724C128.034 88.727 128.034 88.729 128.033 88.732C128.032 88.744 128.031 88.754 128.031 88.761C128.031 88.762 128.031 88.763 128.031 88.764C128.031 88.771 128.031 88.775 128.031 88.775C128.031 88.775 128.836 87.527 130.037 86.774C130.926 87.022 131.883 87.483 132.838 88.28C132.797 88.275 132.757 88.273 132.717 88.272C132.71 88.268 132.703 88.263 132.697 88.259C132.694 88.257 132.692 88.256 132.689 88.254C132.196 87.944 131.298 87.587 130.082 87.96C128.324 88.499 127.719 90.154 127.692 90.635C127.692 90.636 127.692 90.637 127.692 90.638C127.691 90.657 127.691 90.673 127.692 90.688C127.692 90.69 127.692 90.692 127.692 90.694C127.693 90.709 127.695 90.723 127.698 90.734C127.7 90.741 127.704 90.746 127.708 90.749C127.71 90.75 127.712 90.75 127.713 90.751C127.716 90.752 127.72 90.752 127.723 90.751C127.726 90.75 127.728 90.75 127.731 90.748C127.738 90.745 127.745 90.741 127.753 90.735C127.753 90.735 127.755 90.735 127.755 90.734C128.03 90.519 129.244 88.562 131.648 88.572C131.564 88.612 131.481 88.651 131.4 88.689C131.399 88.69 131.397 88.691 131.396 88.691C131.345 88.715 131.295 88.739 131.246 88.761C131.158 88.8 131.063 88.851 130.963 88.917C130.593 89.013 130.196 89.174 129.781 89.424C127.536 90.778 127.519 93.315 127.536 93.47C127.536 93.474 127.538 93.475 127.539 93.474C127.54 93.474 127.54 93.473 127.541 93.472C127.542 93.47 127.544 93.467 127.545 93.464C127.623 93.295 128.209 91.025 130.052 89.994C129.726 90.666 129.536 91.647 129.732 93.054C129.732 93.054 129.753 92.968 129.793 92.818C129.947 92.242 130.39 90.726 131.062 89.601C132.285 89.313 133.422 89.948 133.886 90.244C133.914 90.262 133.939 90.278 133.962 90.293C133.983 90.337 134.004 90.38 134.023 90.422C134.014 90.432 134.007 90.443 134.002 90.456C133.992 90.481 133.99 90.508 133.989 90.534L134.029 91.767L134.07 93C134.075 93.41 134.052 93.82 134.034 94.23C134.016 94.641 133.995 95.052 133.983 95.462C133.972 95.873 133.978 96.285 133.977 96.696L133.983 97.929C133.984 98.135 133.98 98.34 133.978 98.546C133.975 98.75 133.974 98.957 133.977 99.162L133.986 99.778C133.987 99.83 133.986 99.882 133.986 99.935C133.978 99.92 133.973 99.91 133.973 99.91C133.973 99.91 133.976 99.925 133.984 99.953C133.984 99.954 133.985 99.957 133.986 99.958C133.986 100.103 133.984 100.248 133.972 100.393C133.947 100.804 133.945 101.216 133.941 101.627C133.936 102.449 133.942 103.271 133.924 104.092C133.916 104.503 133.892 104.913 133.877 105.325C133.865 105.736 133.858 106.147 133.856 106.558C133.853 106.969 133.853 107.38 133.856 107.791C133.858 108.202 133.863 108.613 133.869 109.025V109.037L133.881 109.039C134.026 109.061 134.171 109.071 134.316 109.072C134.461 109.073 134.607 109.063 134.752 109.041L134.767 109.039L134.766 109.022L134.683 107.877C134.67 107.686 134.652 107.495 134.65 107.305C134.647 107.114 134.65 106.922 134.655 106.731C134.676 105.966 134.71 105.198 134.657 104.432C134.651 104.336 134.642 104.241 134.632 104.145L134.606 103.86C134.594 103.669 134.586 103.479 134.587 103.287C134.587 102.904 134.607 102.522 134.627 102.141C134.647 101.759 134.668 101.375 134.678 100.992C134.689 100.608 134.691 100.226 134.684 99.842L134.654 98.693L134.648 98.119L134.653 97.545C134.656 97.354 134.663 97.163 134.668 96.971L134.692 96.397L134.754 95.249C134.765 95.058 134.769 94.866 134.776 94.675C134.779 94.484 134.785 94.291 134.786 94.1C134.79 93.718 134.785 93.334 134.778 92.951C134.774 92.76 134.769 92.569 134.762 92.377C134.755 92.185 134.745 91.993 134.756 91.803C134.766 91.612 134.787 91.422 134.812 91.232L134.852 90.948C134.853 90.94 134.854 90.932 134.855 90.924L134.914 90.837C134.883 90.88 134.863 90.91 134.855 90.923C134.872 90.894 134.973 90.721 135.138 90.471C135.549 90.093 136.3 89.644 137.455 89.833C137.537 89.846 137.617 89.864 137.697 89.884C139.189 90.271 140.16 91.857 140.363 92.099L140.364 92.1C140.366 92.103 140.368 92.104 140.37 92.107C140.373 92.111 140.377 92.114 140.38 92.117C140.383 92.12 140.387 92.123 140.389 92.125C140.391 92.127 140.393 92.128 140.395 92.129C140.397 92.13 140.399 92.13 140.4 92.13C140.402 92.13 140.402 92.127 140.403 92.124C140.403 92.123 140.404 92.122 140.404 92.12C140.404 92.114 140.403 92.106 140.401 92.095C140.324 91.748 139.706 89.756 138.048 89.409C137.702 89.336 137.389 89.315 137.109 89.324C139.462 88.65 140.925 89.573 141.59 90.19C141.634 90.332 141.668 90.461 141.695 90.571C141.738 90.745 141.761 90.871 141.776 90.928C141.777 90.932 141.778 90.936 141.779 90.939C141.78 90.944 141.781 90.947 141.783 90.951C141.784 90.955 141.786 90.958 141.787 90.96C141.788 90.961 141.789 90.963 141.789 90.963C141.79 90.964 141.791 90.962 141.792 90.96C141.793 90.959 141.793 90.958 141.793 90.957C141.794 90.951 141.795 90.943 141.796 90.93C141.802 90.841 141.826 90.671 141.847 90.453C141.959 90.58 142.015 90.662 142.015 90.662C142.015 90.662 142.016 90.658 142.016 90.65C142.018 90.61 142.012 90.468 141.866 90.227C141.913 89.554 141.892 88.592 141.399 87.976C140.958 87.427 140.219 87.115 139.337 87.07C139.332 87.069 139.326 87.068 139.322 87.067C139.289 87.065 139.255 87.066 139.221 87.065C139.189 87.064 139.157 87.063 139.125 87.063C139.057 87.063 138.987 87.065 138.918 87.068C138.875 87.07 138.831 87.073 138.787 87.076C138.727 87.08 138.667 87.085 138.605 87.092C138.564 87.096 138.522 87.102 138.48 87.108C138.429 87.115 138.378 87.122 138.327 87.13C138.284 87.137 138.241 87.144 138.197 87.152C138.143 87.162 138.088 87.174 138.034 87.185C137.994 87.194 137.954 87.202 137.914 87.211C137.826 87.232 137.737 87.255 137.648 87.281C137.606 87.293 137.564 87.307 137.522 87.32C137.483 87.332 137.443 87.343 137.404 87.357C137.414 87.354 137.427 87.35 137.443 87.346C137.395 87.362 137.347 87.376 137.299 87.392C136.975 87.505 136.684 87.689 136.426 87.904C135.932 88.318 135.561 88.855 135.318 89.276C136.752 86.386 139.433 85.881 139.433 85.881C142.073 86.275 142.524 87.869 142.66 88.225C142.66 88.226 142.66 88.226 142.66 88.227C142.661 88.229 142.662 88.231 142.662 88.233C142.666 88.244 142.67 88.254 142.674 88.262C142.675 88.265 142.677 88.269 142.678 88.272C142.683 88.282 142.687 88.288 142.691 88.292C142.692 88.293 142.693 88.294 142.695 88.294C142.698 88.296 142.701 88.296 142.704 88.294C142.705 88.293 142.706 88.293 142.707 88.292C142.711 88.288 142.715 88.281 142.719 88.27C142.824 87.969 142.944 86.749 142.001 85.755ZM139.722 87.64C140.613 88.147 141.118 88.969 141.407 89.669C141.154 89.423 140.799 89.131 140.296 88.795C139.235 88.085 137.917 88.119 136.924 88.464C138.298 87.472 139.722 87.64 139.722 87.64ZM135.717 84.963C136.363 83.739 137.362 83.575 137.362 83.575C137.493 83.605 137.616 83.641 137.736 83.68C136.768 83.949 136.125 84.481 135.717 84.963ZM134.031 89.191C134.019 89.168 134.008 89.145 133.995 89.123C134.006 89.142 134.018 89.163 134.029 89.183L134.031 89.191ZM133.936 89.028C133.95 89.05 133.965 89.071 133.979 89.094C133.965 89.072 133.95 89.05 133.936 89.028ZM132.385 86.966C132.028 86.731 131.593 86.492 131.094 86.305C131.119 86.299 131.144 86.291 131.169 86.286C131.168 86.286 131.692 86.334 132.385 86.966Z" fill="#345968"/>
</g>
</g>
<g id="Clip path group_2">
<mask id="mask1_0_1" style="mask-type:luminance" maskUnits="userSpaceOnUse" x="0" y="0" width="200" height="122">
<g id="SVGID_00000077283932440843401680000014491191751515782315__2">
<path id="Vector_3" d="M200 0H0V121.69H200V0Z" fill="white"/>
</g>
</mask>
<g mask="url(#mask1_0_1)">
<path id="Vector_4" d="M125.1 89.698C124.528 89.095 123.312 88.858 122.099 89.03C122.092 89.031 122.085 89.032 122.078 89.033C121.877 89.062 121.676 89.103 121.478 89.155C121.477 89.155 121.475 89.156 121.474 89.156C121.375 89.182 121.278 89.211 121.181 89.243C121.179 89.244 121.177 89.244 121.175 89.245C120.719 89.396 120.289 89.61 119.923 89.893C119.264 90.402 118.829 90.903 118.541 91.32C119.138 89.279 120.349 88.341 121.553 87.934C122.003 88.179 122.334 88.46 122.536 88.66C122.545 88.669 122.554 88.678 122.563 88.687C122.578 88.702 122.591 88.716 122.605 88.73C122.649 88.776 122.685 88.816 122.712 88.847C122.714 88.849 122.716 88.851 122.718 88.853C122.735 88.873 122.748 88.888 122.757 88.9C122.759 88.902 122.761 88.905 122.762 88.907C122.766 88.912 122.769 88.916 122.771 88.919C122.773 88.921 122.776 88.925 122.776 88.925C122.765 88.892 122.753 88.858 122.74 88.822C122.728 88.791 122.715 88.759 122.702 88.726C122.701 88.723 122.7 88.72 122.698 88.717C122.58 88.435 122.386 88.096 122.097 87.784C123.478 87.482 124.721 87.781 124.844 87.781C124.853 87.781 124.86 87.78 124.865 87.778C124.866 87.778 124.867 87.777 124.868 87.776C124.871 87.775 124.874 87.773 124.875 87.771C124.875 87.77 124.876 87.769 124.876 87.768C124.877 87.765 124.876 87.763 124.874 87.759C124.874 87.758 124.873 87.757 124.872 87.756C124.87 87.752 124.866 87.748 124.861 87.744C124.86 87.743 124.859 87.742 124.857 87.74C124.851 87.735 124.843 87.729 124.834 87.723C124.827 87.719 124.819 87.714 124.811 87.71C124.808 87.708 124.805 87.706 124.801 87.704C124.791 87.699 124.779 87.693 124.767 87.687C124.765 87.686 124.763 87.685 124.762 87.684C124.736 87.672 124.708 87.66 124.674 87.646C124.674 87.646 124.67 87.645 124.669 87.645C124.265 87.492 123.275 87.284 121.746 87.459C121.479 87.252 121.156 87.077 120.769 86.969C120.673 86.942 120.579 86.923 120.485 86.907C121.995 85.387 123.448 85.427 123.728 85.412C123.74 85.411 123.748 85.41 123.755 85.407C123.757 85.406 123.759 85.405 123.76 85.405C123.764 85.403 123.767 85.4 123.769 85.398C123.77 85.397 123.77 85.396 123.771 85.395C123.772 85.391 123.771 85.386 123.767 85.381C123.763 85.375 123.756 85.369 123.748 85.363C123.747 85.362 123.746 85.362 123.745 85.361C123.557 85.223 122.363 84.916 120.745 85.654C119.934 86.024 119.337 86.622 118.915 87.194C118.894 87.206 118.873 87.218 118.853 87.231C118.847 87.234 118.841 87.237 118.836 87.241C118.738 87.301 118.644 87.368 118.553 87.441C118.629 85.332 120.068 83.426 120.068 83.426C119.97 83.487 119.877 83.552 119.786 83.619C119.783 83.622 119.779 83.624 119.775 83.626C119.767 83.633 119.754 83.643 119.739 83.655C118.247 84.79 117.682 86.696 117.471 88.103C116.996 85.449 117.944 83.381 118.076 82.915C118.076 82.914 118.076 82.914 118.076 82.913C118.081 82.896 118.084 82.882 118.086 82.869C118.087 82.865 118.087 82.862 118.088 82.858C118.09 82.847 118.09 82.837 118.09 82.83C118.09 82.829 118.089 82.828 118.089 82.827C118.088 82.822 118.085 82.818 118.082 82.817C118.081 82.817 118.08 82.816 118.079 82.816C118.067 82.814 118.046 82.826 118.013 82.855C118.013 82.855 118.011 82.858 118.01 82.859C117.999 82.869 117.988 82.879 117.974 82.893C116.607 84.228 116.468 86.685 116.551 88.319C115.115 85.705 113.097 85.529 111.954 86.561C111.952 86.562 111.948 86.565 111.948 86.565C111.942 86.57 111.937 86.576 111.932 86.581C111.886 86.624 111.841 86.668 111.797 86.715C111.591 86.938 113.306 85.314 115.482 88.104C115.988 88.753 116.484 90.34 116.732 91.332C116.638 91.137 116.531 90.952 116.41 90.786C116.123 90.064 115.468 88.797 114.211 88.045C114.189 88.031 114.167 88.018 114.144 88.005C113.922 87.878 113.696 87.78 113.469 87.709H113.471C113.469 87.708 113.467 87.708 113.464 87.707C113.368 87.677 113.272 87.652 113.176 87.631C113.165 87.629 113.154 87.626 113.143 87.624C113.046 87.604 112.949 87.589 112.853 87.578C112.852 87.578 112.851 87.578 112.851 87.578C112.851 87.578 112.85 87.578 112.849 87.578C111.36 87.42 109.97 88.363 109.687 89.892C109.683 89.912 109.681 89.926 109.681 89.936C109.681 89.937 109.681 89.938 109.681 89.938C109.681 89.941 109.682 89.943 109.682 89.945C109.682 89.946 109.682 89.948 109.683 89.949C109.683 89.95 109.684 89.95 109.685 89.95C109.686 89.951 109.687 89.951 109.689 89.95C109.69 89.95 109.69 89.949 109.691 89.949C109.699 89.944 109.711 89.928 109.729 89.901L109.73 89.9C109.732 89.897 109.734 89.894 109.736 89.891C109.901 89.642 110.458 88.674 111.573 88.207C111.573 88.207 113.651 88.021 115.274 90.006C115.211 89.988 115.147 89.973 115.083 89.959C115.085 89.959 115.088 89.959 115.09 89.959C115.082 89.957 115.074 89.957 115.066 89.955C115.032 89.948 114.998 89.943 114.964 89.938C114.917 89.93 114.87 89.923 114.822 89.917C114.781 89.912 114.741 89.908 114.699 89.905C114.654 89.901 114.609 89.899 114.563 89.898C114.523 89.897 114.483 89.894 114.442 89.894C114.364 89.894 114.286 89.896 114.208 89.901C113.954 89.917 113.7 89.961 113.455 90.028C113.086 89.944 112.692 89.893 112.275 89.893C110.386 89.893 109.274 90.501 108.891 90.797L108.89 90.798C108.887 90.801 108.884 90.803 108.881 90.806C108.784 90.882 108.737 90.936 108.739 90.951C108.739 90.952 108.739 90.952 108.739 90.953C108.74 90.954 108.741 90.955 108.743 90.955C108.744 90.955 108.745 90.956 108.746 90.956C108.75 90.956 108.755 90.954 108.761 90.951C108.889 90.898 110.381 90.24 112.354 90.547C112.277 90.604 112.204 90.664 112.137 90.728C111.342 91.483 111.172 92.302 111.136 92.6C111.136 92.601 111.136 92.602 111.136 92.602C111.136 92.605 111.136 92.607 111.135 92.609C111.134 92.615 111.134 92.62 111.133 92.626C111.131 92.641 111.13 92.655 111.129 92.667C111.129 92.67 111.129 92.672 111.128 92.675C111.127 92.687 111.126 92.697 111.126 92.704C111.126 92.705 111.126 92.706 111.126 92.707C111.126 92.714 111.126 92.718 111.126 92.718C111.126 92.718 111.931 91.47 113.132 90.717C114.022 90.965 114.978 91.426 115.933 92.223C115.892 92.218 115.852 92.216 115.812 92.215C115.805 92.211 115.798 92.206 115.792 92.202C115.789 92.2 115.787 92.199 115.784 92.197C115.291 91.887 114.393 91.53 113.177 91.903C111.419 92.442 110.814 94.097 110.787 94.578C110.787 94.579 110.787 94.58 110.787 94.581C110.786 94.6 110.786 94.616 110.787 94.631C110.787 94.633 110.787 94.635 110.787 94.637C110.788 94.653 110.79 94.667 110.793 94.677C110.795 94.685 110.799 94.689 110.803 94.692C110.805 94.693 110.807 94.693 110.808 94.694C110.811 94.695 110.815 94.695 110.818 94.694C110.821 94.693 110.823 94.693 110.826 94.691C110.833 94.688 110.84 94.684 110.848 94.678C110.848 94.678 110.848 94.678 110.849 94.677C110.849 94.677 110.85 94.677 110.85 94.676C111.125 94.461 112.339 92.505 114.743 92.515C114.659 92.554 114.576 92.594 114.495 92.632C114.494 92.633 114.492 92.634 114.491 92.634C114.44 92.658 114.39 92.682 114.341 92.704C114.253 92.743 114.158 92.794 114.058 92.86C113.688 92.956 113.291 93.117 112.876 93.367C110.631 94.721 110.614 97.258 110.631 97.413C110.631 97.417 110.633 97.418 110.634 97.417C110.634 97.417 110.635 97.416 110.636 97.415C110.637 97.413 110.639 97.411 110.64 97.407C110.718 97.238 111.304 94.968 113.147 93.937C112.821 94.609 112.632 95.59 112.827 96.997C112.827 96.997 112.848 96.911 112.888 96.761C113.042 96.185 113.485 94.669 114.157 93.544C115.38 93.256 116.517 93.891 116.981 94.187C117.009 94.205 117.034 94.221 117.057 94.236C117.078 94.28 117.099 94.323 117.119 94.365C117.11 94.375 117.103 94.386 117.098 94.399C117.088 94.424 117.086 94.451 117.085 94.477L117.125 95.71L117.166 96.943C117.171 97.353 117.148 97.763 117.13 98.173C117.112 98.584 117.091 98.995 117.079 99.406C117.068 99.817 117.074 100.229 117.073 100.64L117.079 101.873C117.08 102.078 117.076 102.284 117.074 102.49C117.071 102.694 117.07 102.901 117.073 103.106L117.082 103.722C117.083 103.774 117.082 103.826 117.082 103.879C117.074 103.865 117.069 103.854 117.069 103.854C117.069 103.854 117.072 103.869 117.08 103.897C117.081 103.898 117.081 103.901 117.082 103.902C117.082 104.047 117.08 104.192 117.068 104.337C117.043 104.748 117.041 105.16 117.037 105.571C117.032 106.393 117.038 107.215 117.02 108.036C117.012 108.447 116.988 108.857 116.973 109.269C116.961 109.68 116.954 110.091 116.952 110.502C116.949 110.913 116.949 111.324 116.952 111.735C116.954 112.146 116.959 112.557 116.965 112.969V112.981L116.977 112.983C117.122 113.005 117.267 113.015 117.412 113.016C117.558 113.017 117.703 113.007 117.848 112.985L117.863 112.983L117.862 112.966L117.779 111.821C117.766 111.63 117.748 111.438 117.746 111.248C117.743 111.057 117.746 110.866 117.751 110.674C117.772 109.909 117.806 109.141 117.753 108.375C117.747 108.279 117.738 108.184 117.728 108.088L117.702 107.803C117.69 107.612 117.682 107.422 117.683 107.231C117.683 106.848 117.703 106.466 117.723 106.085C117.744 105.702 117.764 105.319 117.774 104.936C117.785 104.552 117.787 104.17 117.78 103.786L117.75 102.637L117.744 102.063L117.749 101.489C117.752 101.298 117.759 101.107 117.764 100.915L117.788 100.341L117.85 99.193C117.861 99.002 117.865 98.81 117.872 98.619C117.876 98.428 117.881 98.235 117.882 98.044C117.886 97.662 117.881 97.278 117.874 96.895C117.87 96.704 117.865 96.513 117.858 96.321C117.851 96.129 117.841 95.937 117.852 95.747C117.862 95.556 117.883 95.366 117.908 95.175L117.948 94.891C117.949 94.883 117.95 94.875 117.951 94.867L118.01 94.78C117.979 94.823 117.959 94.854 117.951 94.867C117.951 94.867 117.951 94.866 117.951 94.865C117.968 94.836 118.069 94.664 118.234 94.414C118.645 94.036 119.396 93.587 120.551 93.776C120.633 93.789 120.714 93.806 120.793 93.827C122.285 94.214 123.256 95.8 123.459 96.042C123.459 96.042 123.459 96.043 123.46 96.043C123.462 96.046 123.464 96.047 123.466 96.05C123.469 96.054 123.473 96.057 123.475 96.06C123.478 96.064 123.482 96.066 123.484 96.068C123.486 96.07 123.488 96.071 123.49 96.072C123.492 96.073 123.494 96.073 123.495 96.073C123.497 96.072 123.498 96.07 123.498 96.067C123.498 96.066 123.499 96.065 123.499 96.063C123.499 96.057 123.498 96.049 123.496 96.038C123.419 95.691 122.802 93.699 121.143 93.352C120.797 93.279 120.484 93.258 120.204 93.267C122.557 92.593 124.02 93.516 124.685 94.133C124.729 94.275 124.763 94.404 124.79 94.514C124.833 94.688 124.856 94.814 124.871 94.871C124.872 94.875 124.873 94.879 124.874 94.882C124.875 94.887 124.877 94.89 124.878 94.894C124.879 94.898 124.881 94.901 124.882 94.903C124.883 94.904 124.884 94.906 124.884 94.906C124.885 94.907 124.886 94.905 124.887 94.903C124.887 94.902 124.888 94.901 124.888 94.899C124.889 94.893 124.89 94.885 124.891 94.872C124.897 94.783 124.921 94.613 124.942 94.395C125.054 94.521 125.11 94.604 125.11 94.604C125.11 94.604 125.111 94.6 125.111 94.592C125.113 94.552 125.107 94.41 124.961 94.169C125.008 93.496 124.987 92.534 124.493 91.918C124.052 91.369 123.313 91.057 122.431 91.012C122.426 91.011 122.42 91.01 122.416 91.009C122.383 91.008 122.349 91.008 122.315 91.007C122.283 91.006 122.251 91.005 122.219 91.005C122.151 91.005 122.081 91.007 122.012 91.01C121.968 91.012 121.925 91.015 121.881 91.018C121.821 91.022 121.761 91.027 121.699 91.033C121.658 91.037 121.616 91.043 121.574 91.049C121.523 91.056 121.472 91.063 121.421 91.071C121.378 91.078 121.335 91.085 121.291 91.093C121.237 91.103 121.182 91.115 121.128 91.126C121.088 91.135 121.048 91.143 121.008 91.152C120.92 91.173 120.831 91.196 120.742 91.222C120.7 91.234 120.658 91.248 120.616 91.261C120.577 91.273 120.537 91.284 120.498 91.298C120.508 91.295 120.521 91.291 120.537 91.287C120.489 91.303 120.441 91.316 120.393 91.333C120.069 91.446 119.778 91.629 119.52 91.845C119.026 92.259 118.655 92.796 118.412 93.217C119.846 90.327 122.527 89.822 122.527 89.822C125.167 90.217 125.618 91.81 125.754 92.166C125.754 92.167 125.754 92.167 125.754 92.168C125.755 92.17 125.756 92.172 125.756 92.174C125.76 92.185 125.764 92.195 125.768 92.203C125.769 92.206 125.771 92.21 125.772 92.213C125.777 92.223 125.781 92.229 125.785 92.233C125.786 92.234 125.787 92.235 125.789 92.235C125.792 92.237 125.795 92.237 125.798 92.235C125.799 92.234 125.8 92.234 125.801 92.233C125.805 92.229 125.809 92.222 125.813 92.211C125.923 91.913 126.043 90.692 125.1 89.698ZM122.82 91.584C123.711 92.091 124.216 92.913 124.505 93.613C124.252 93.367 123.897 93.075 123.394 92.739C122.333 92.029 121.015 92.063 120.022 92.408C121.397 91.416 122.82 91.584 122.82 91.584ZM118.816 88.907C119.462 87.683 120.461 87.519 120.461 87.519C120.592 87.549 120.715 87.585 120.835 87.624C119.867 87.893 119.223 88.425 118.816 88.907ZM117.129 93.135C117.117 93.112 117.106 93.089 117.093 93.067C117.104 93.086 117.116 93.107 117.127 93.127L117.129 93.135ZM117.034 92.971C117.048 92.993 117.062 93.014 117.077 93.038C117.064 93.015 117.048 92.993 117.034 92.971ZM115.483 90.91C115.126 90.675 114.691 90.436 114.192 90.249C114.217 90.243 114.242 90.235 114.267 90.23C114.267 90.229 114.79 90.278 115.483 90.91Z" fill="#345968"/>
</g>
</g>
<g id="Clip path group_3">
<mask id="mask2_0_1" style="mask-type:luminance" maskUnits="userSpaceOnUse" x="-58" y="-2" width="200" height="122">
<g id="SVGID_00000077283932440843401680000014491191751515782315__3">
<path id="Vector_5" d="M142 -2H-58V119.69H142V-2Z" fill="white"/>
</g>
</mask>
<g mask="url(#mask2_0_1)">
<path id="Vector_6" d="M75.441 92.99C74.98 92.504 74 92.313 73.022 92.451C73.016 92.452 73.011 92.453 73.005 92.454C72.843 92.478 72.681 92.51 72.522 92.552C72.521 92.552 72.52 92.552 72.519 92.553C72.439 92.574 72.361 92.598 72.283 92.623C72.281 92.624 72.279 92.624 72.278 92.624H72.279C71.911 92.746 71.564 92.919 71.269 93.146C70.738 93.557 70.387 93.96 70.155 94.296C70.636 92.651 71.612 91.895 72.582 91.567C72.945 91.765 73.211 91.991 73.374 92.152C73.382 92.159 73.389 92.167 73.395 92.174C73.407 92.186 73.418 92.197 73.429 92.209C73.464 92.246 73.493 92.278 73.515 92.303C73.516 92.305 73.518 92.306 73.519 92.308C73.533 92.324 73.543 92.336 73.551 92.346C73.552 92.348 73.554 92.35 73.555 92.351C73.558 92.355 73.561 92.358 73.563 92.36C73.564 92.362 73.567 92.365 73.567 92.365C73.558 92.339 73.549 92.311 73.538 92.282C73.529 92.257 73.518 92.231 73.507 92.204C73.506 92.201 73.505 92.199 73.504 92.197C73.409 91.969 73.252 91.696 73.019 91.445C74.132 91.202 75.134 91.442 75.233 91.442C75.24 91.442 75.246 91.441 75.25 91.44C75.251 91.44 75.252 91.439 75.253 91.439C75.256 91.438 75.258 91.436 75.259 91.435C75.259 91.434 75.26 91.434 75.26 91.433C75.26 91.431 75.26 91.429 75.259 91.426C75.259 91.425 75.258 91.424 75.258 91.423C75.256 91.42 75.253 91.417 75.249 91.413C75.248 91.412 75.247 91.411 75.246 91.41C75.241 91.406 75.235 91.401 75.227 91.396C75.222 91.393 75.215 91.389 75.209 91.385C75.206 91.383 75.204 91.382 75.201 91.381C75.193 91.377 75.183 91.372 75.174 91.367C75.173 91.366 75.171 91.366 75.17 91.365C75.149 91.355 75.126 91.345 75.099 91.335C75.099 91.335 75.096 91.334 75.095 91.334C74.769 91.211 73.971 91.043 72.739 91.184C72.524 91.017 72.264 90.876 71.952 90.789C71.875 90.768 71.798 90.752 71.723 90.74C72.94 89.515 74.111 89.548 74.337 89.535C74.347 89.534 74.353 89.533 74.359 89.531C74.361 89.53 74.362 89.53 74.363 89.529C74.366 89.527 74.369 89.525 74.37 89.523C74.37 89.522 74.371 89.522 74.371 89.52C74.372 89.517 74.371 89.513 74.368 89.508C74.365 89.503 74.359 89.498 74.353 89.493C74.352 89.492 74.351 89.492 74.351 89.491C74.199 89.38 73.237 89.132 71.933 89.727C71.279 90.025 70.798 90.507 70.458 90.969C70.441 90.979 70.424 90.989 70.408 90.999C70.403 91.002 70.399 91.004 70.394 91.007C70.394 91.007 70.394 91.007 70.395 91.007C70.316 91.056 70.24 91.11 70.166 91.168C70.227 89.468 71.387 87.932 71.387 87.932C71.308 87.981 71.233 88.034 71.16 88.088C71.157 88.09 71.154 88.092 71.151 88.094C71.144 88.099 71.134 88.108 71.122 88.118C69.92 89.033 69.464 90.569 69.294 91.703C68.911 89.564 69.675 87.897 69.782 87.521C69.782 87.52 69.782 87.52 69.782 87.52C69.786 87.507 69.788 87.494 69.79 87.484C69.791 87.481 69.791 87.478 69.792 87.475C69.793 87.466 69.794 87.458 69.793 87.453C69.793 87.452 69.792 87.452 69.792 87.451C69.791 87.447 69.789 87.444 69.786 87.442C69.785 87.442 69.785 87.441 69.784 87.441C69.774 87.439 69.757 87.449 69.731 87.473C69.731 87.473 69.729 87.475 69.728 87.476C69.719 87.484 69.71 87.492 69.699 87.503C68.597 88.579 68.485 90.559 68.552 91.876C67.394 89.769 65.768 89.627 64.847 90.459C64.846 90.46 64.842 90.462 64.842 90.462C64.837 90.466 64.834 90.471 64.829 90.475C64.792 90.51 64.755 90.545 64.72 90.583C64.554 90.763 65.936 89.454 67.69 91.702C68.098 92.225 68.498 93.504 68.698 94.304C68.622 94.146 68.536 93.997 68.438 93.864C68.207 93.282 67.679 92.261 66.666 91.655C66.648 91.644 66.631 91.633 66.612 91.623C66.433 91.52 66.251 91.442 66.068 91.384C66.066 91.383 66.065 91.383 66.064 91.383C65.987 91.359 65.909 91.339 65.832 91.322C65.823 91.32 65.814 91.318 65.805 91.316C65.727 91.3 65.649 91.288 65.571 91.279C65.57 91.279 65.57 91.279 65.569 91.279C64.369 91.152 63.248 91.912 63.02 93.144C63.017 93.161 63.016 93.172 63.015 93.18C63.015 93.181 63.015 93.181 63.015 93.182C63.015 93.185 63.015 93.186 63.016 93.188C63.016 93.189 63.016 93.19 63.017 93.191C63.017 93.192 63.018 93.192 63.019 93.192C63.02 93.192 63.021 93.193 63.022 93.192L63.023 93.191C63.029 93.187 63.039 93.174 63.054 93.153L63.055 93.152C63.057 93.149 63.058 93.147 63.06 93.145C63.193 92.944 63.642 92.164 64.541 91.787C64.541 91.787 66.216 91.637 67.524 93.237C67.473 93.223 67.422 93.21 67.37 93.199C67.372 93.199 67.374 93.199 67.376 93.199C67.37 93.198 67.363 93.197 67.357 93.196C67.33 93.19 67.302 93.187 67.275 93.182C67.237 93.176 67.199 93.17 67.16 93.165C67.127 93.161 67.094 93.158 67.061 93.155C67.025 93.152 66.988 93.15 66.952 93.149C66.92 93.148 66.887 93.146 66.855 93.146C66.792 93.146 66.73 93.147 66.666 93.151C66.461 93.164 66.257 93.2 66.059 93.253C65.762 93.185 65.444 93.144 65.108 93.144C63.586 93.144 62.689 93.634 62.38 93.872L62.379 93.873C62.376 93.875 62.374 93.877 62.371 93.879C62.293 93.94 62.255 93.983 62.257 93.995C62.257 93.995 62.257 93.996 62.257 93.997C62.258 93.998 62.259 93.998 62.26 93.998C62.261 93.998 62.261 93.999 62.263 93.999C62.266 93.999 62.27 93.998 62.276 93.995C62.379 93.953 63.582 93.422 65.172 93.67C65.11 93.716 65.051 93.764 64.997 93.816C64.356 94.424 64.219 95.084 64.19 95.325V95.327C64.19 95.329 64.19 95.331 64.189 95.333C64.188 95.338 64.188 95.342 64.188 95.347C64.187 95.359 64.185 95.37 64.185 95.38C64.185 95.382 64.185 95.384 64.185 95.386C64.184 95.396 64.184 95.404 64.183 95.409C64.183 95.41 64.183 95.411 64.183 95.411C64.183 95.416 64.183 95.42 64.183 95.42C64.183 95.42 64.831 94.414 65.8 93.808C66.517 94.008 67.288 94.379 68.057 95.022C68.024 95.018 67.992 95.016 67.959 95.015C67.954 95.012 67.948 95.008 67.943 95.005C67.941 95.004 67.939 95.002 67.937 95.001C67.54 94.751 66.816 94.463 65.836 94.764C64.419 95.199 63.931 96.533 63.909 96.92C63.909 96.921 63.909 96.921 63.909 96.922C63.908 96.937 63.908 96.95 63.909 96.962C63.909 96.964 63.909 96.965 63.909 96.967C63.91 96.979 63.911 96.991 63.914 96.999C63.916 97.005 63.918 97.009 63.922 97.011C63.923 97.012 63.925 97.012 63.926 97.012C63.928 97.013 63.931 97.013 63.934 97.012C63.936 97.012 63.938 97.011 63.941 97.01C63.946 97.008 63.952 97.004 63.959 96.999C63.959 96.999 63.96 96.999 63.961 96.999C64.182 96.826 65.161 95.25 67.098 95.257C67.03 95.289 66.964 95.321 66.898 95.351C66.897 95.352 66.896 95.352 66.895 95.353C66.854 95.372 66.814 95.391 66.774 95.409C66.704 95.44 66.626 95.482 66.546 95.535C66.247 95.613 65.928 95.742 65.593 95.944C63.783 97.035 63.769 99.08 63.783 99.205C63.783 99.208 63.784 99.209 63.786 99.208C63.786 99.208 63.787 99.207 63.788 99.206C63.789 99.205 63.79 99.202 63.791 99.199C63.854 99.063 64.326 97.233 65.812 96.402C65.549 96.944 65.397 97.734 65.554 98.868C65.554 98.868 65.571 98.799 65.603 98.678C65.727 98.214 66.084 96.992 66.626 96.085C67.611 95.853 68.528 96.365 68.902 96.603C68.924 96.617 68.945 96.63 68.963 96.643C68.98 96.678 68.996 96.713 69.012 96.747C69.005 96.755 68.999 96.764 68.995 96.774C68.987 96.794 68.986 96.816 68.985 96.837L69.017 97.83L69.05 98.823C69.054 99.153 69.036 99.484 69.021 99.814C69.006 100.145 68.989 100.476 68.98 100.807C68.971 101.138 68.976 101.47 68.975 101.801L68.98 102.794C68.98 102.96 68.977 103.125 68.976 103.291C68.974 103.455 68.972 103.622 68.975 103.788L68.982 104.285C68.982 104.327 68.982 104.369 68.982 104.411C68.976 104.399 68.972 104.391 68.972 104.391C68.972 104.391 68.975 104.403 68.981 104.425C68.981 104.426 68.982 104.428 68.982 104.429C68.982 104.546 68.98 104.663 68.971 104.78C68.951 105.111 68.949 105.443 68.946 105.774C68.942 106.436 68.947 107.099 68.932 107.761C68.925 108.092 68.906 108.422 68.894 108.754C68.884 109.085 68.879 109.416 68.877 109.747C68.875 110.078 68.875 110.409 68.877 110.74C68.878 111.071 68.883 111.402 68.888 111.734V111.743L68.898 111.745C69.015 111.763 69.131 111.771 69.249 111.772C69.366 111.773 69.484 111.764 69.6 111.747L69.612 111.745L69.611 111.732L69.544 110.809C69.533 110.655 69.519 110.501 69.517 110.347C69.514 110.193 69.517 110.039 69.521 109.885C69.538 109.268 69.565 108.65 69.522 108.032C69.517 107.955 69.51 107.878 69.502 107.801L69.481 107.572C69.472 107.418 69.465 107.265 69.466 107.111C69.466 106.803 69.482 106.494 69.498 106.187C69.515 105.879 69.531 105.569 69.539 105.261C69.548 104.952 69.549 104.643 69.544 104.334L69.52 103.408L69.515 102.945L69.519 102.482C69.522 102.328 69.527 102.174 69.531 102.02L69.551 101.558L69.601 100.633C69.61 100.479 69.613 100.325 69.619 100.171C69.622 100.017 69.627 99.862 69.627 99.707C69.631 99.399 69.626 99.09 69.621 98.781C69.618 98.627 69.613 98.473 69.608 98.318C69.603 98.163 69.594 98.009 69.603 97.856C69.611 97.702 69.628 97.549 69.648 97.395L69.68 97.166C69.681 97.159 69.682 97.153 69.683 97.146L69.73 97.076C69.705 97.11 69.689 97.135 69.683 97.145C69.697 97.122 69.778 96.982 69.911 96.781C70.242 96.477 70.847 96.115 71.779 96.267C71.845 96.277 71.91 96.292 71.974 96.308C73.176 96.62 73.959 97.898 74.123 98.093C74.123 98.093 74.123 98.094 74.124 98.094C74.126 98.096 74.127 98.097 74.129 98.099C74.132 98.102 74.134 98.105 74.137 98.107C74.14 98.11 74.142 98.112 74.144 98.114C74.146 98.115 74.147 98.116 74.149 98.117C74.15 98.117 74.152 98.118 74.153 98.118C74.154 98.118 74.155 98.116 74.156 98.113C74.156 98.112 74.157 98.111 74.157 98.11C74.157 98.105 74.156 98.099 74.154 98.09C74.092 97.81 73.594 96.205 72.258 95.925C71.979 95.866 71.727 95.849 71.501 95.857C73.398 95.313 74.577 96.058 75.113 96.555C75.148 96.67 75.176 96.773 75.198 96.862C75.232 97.002 75.252 97.104 75.263 97.15C75.264 97.153 75.265 97.157 75.265 97.159C75.266 97.163 75.267 97.166 75.268 97.169C75.269 97.172 75.27 97.175 75.271 97.176C75.272 97.177 75.272 97.178 75.273 97.178C75.274 97.178 75.275 97.177 75.276 97.175C75.276 97.174 75.277 97.174 75.277 97.172C75.278 97.167 75.279 97.161 75.28 97.15C75.285 97.078 75.304 96.941 75.321 96.765C75.411 96.867 75.456 96.934 75.456 96.934C75.456 96.934 75.457 96.931 75.457 96.924C75.459 96.892 75.454 96.778 75.336 96.583C75.374 96.04 75.357 95.265 74.959 94.769C74.604 94.327 74.008 94.075 73.297 94.039C73.293 94.038 73.288 94.037 73.285 94.037C73.258 94.036 73.231 94.036 73.204 94.035C73.178 94.034 73.152 94.034 73.126 94.034C73.071 94.034 73.015 94.035 72.959 94.038C72.924 94.039 72.889 94.042 72.853 94.044C72.804 94.047 72.756 94.051 72.707 94.056C72.674 94.06 72.64 94.064 72.606 94.069C72.565 94.074 72.524 94.08 72.483 94.087C72.448 94.093 72.413 94.098 72.378 94.105C72.334 94.113 72.29 94.122 72.246 94.132C72.214 94.139 72.181 94.145 72.149 94.153C72.078 94.17 72.007 94.189 71.935 94.209C71.901 94.219 71.868 94.23 71.834 94.24C71.802 94.25 71.77 94.259 71.739 94.27C71.747 94.268 71.757 94.265 71.77 94.261C71.731 94.274 71.693 94.285 71.654 94.298C71.393 94.389 71.158 94.537 70.95 94.711C70.552 95.045 70.253 95.478 70.057 95.817C71.213 93.488 73.374 93.081 73.374 93.081C75.502 93.399 75.865 94.683 75.975 94.97C75.975 94.971 75.975 94.971 75.975 94.972C75.976 94.974 75.976 94.975 75.977 94.977C75.98 94.986 75.984 94.994 75.987 95C75.988 95.002 75.989 95.006 75.99 95.008C75.994 95.016 75.997 95.021 76.001 95.024C76.002 95.025 76.003 95.025 76.004 95.026C76.006 95.028 76.009 95.028 76.011 95.026C76.012 95.025 76.013 95.025 76.014 95.024C76.017 95.021 76.02 95.015 76.023 95.006C76.104 94.775 76.201 93.791 75.441 92.99ZM73.603 94.509C74.321 94.918 74.728 95.58 74.961 96.144C74.757 95.945 74.471 95.71 74.066 95.44C73.211 94.868 72.149 94.895 71.349 95.173C72.456 94.374 73.603 94.509 73.603 94.509ZM70.376 92.352C70.896 91.365 71.702 91.233 71.702 91.233C71.807 91.257 71.907 91.286 72.004 91.318C71.223 91.535 70.704 91.963 70.376 92.352ZM69.016 95.759C69.006 95.741 68.998 95.722 68.987 95.704C68.996 95.72 69.005 95.736 69.014 95.753L69.016 95.759ZM68.94 95.628C68.952 95.646 68.963 95.662 68.975 95.682C68.964 95.663 68.951 95.646 68.94 95.628ZM67.69 93.966C67.402 93.776 67.052 93.584 66.649 93.433C66.669 93.428 66.689 93.422 66.709 93.417C66.709 93.418 67.131 93.457 67.69 93.966Z" fill="#345968"/>
</g>
</g>
<g id="Clip path group_4">
<mask id="mask3_0_1" style="mask-type:luminance" maskUnits="userSpaceOnUse" x="-58" y="-2" width="200" height="122">
<g id="SVGID_00000077283932440843401680000014491191751515782315__4">
<path id="Vector_7" d="M142 -2H-58V119.69H142V-2Z" fill="white"/>
</g>
</mask>
<g mask="url(#mask3_0_1)">
<path id="Vector_8" d="M84.001 83.755C83.429 83.152 82.213 82.915 81 83.087C80.993 83.088 80.986 83.089 80.979 83.09C80.778 83.119 80.577 83.16 80.38 83.212C80.379 83.212 80.377 83.213 80.376 83.213C80.277 83.239 80.18 83.268 80.083 83.3C80.081 83.301 80.079 83.301 80.077 83.302H80.078C79.622 83.453 79.191 83.668 78.825 83.95C78.167 84.46 77.731 84.96 77.443 85.377C78.04 83.336 79.251 82.398 80.455 81.991C80.905 82.236 81.236 82.517 81.438 82.717C81.447 82.726 81.456 82.735 81.465 82.744C81.48 82.759 81.494 82.773 81.507 82.787C81.551 82.833 81.587 82.873 81.614 82.904C81.616 82.906 81.618 82.908 81.619 82.91C81.636 82.93 81.649 82.945 81.659 82.957C81.661 82.959 81.663 82.962 81.664 82.964C81.668 82.969 81.671 82.973 81.673 82.976C81.675 82.978 81.678 82.982 81.678 82.982C81.667 82.949 81.655 82.915 81.642 82.879C81.63 82.848 81.617 82.816 81.604 82.783C81.603 82.78 81.602 82.777 81.6 82.774C81.482 82.492 81.288 82.153 80.999 81.841C82.38 81.539 83.623 81.838 83.746 81.838C83.755 81.838 83.762 81.837 83.767 81.836C83.768 81.835 83.769 81.835 83.77 81.834C83.773 81.832 83.776 81.831 83.777 81.828C83.778 81.827 83.778 81.826 83.778 81.825C83.779 81.822 83.778 81.82 83.776 81.817C83.775 81.816 83.775 81.815 83.774 81.813C83.772 81.809 83.768 81.805 83.763 81.801C83.762 81.8 83.761 81.799 83.759 81.797C83.753 81.792 83.745 81.786 83.736 81.78C83.729 81.776 83.721 81.771 83.713 81.767C83.71 81.765 83.707 81.764 83.703 81.762C83.693 81.756 83.681 81.751 83.669 81.745C83.667 81.744 83.666 81.743 83.664 81.743C83.638 81.731 83.61 81.719 83.576 81.705C83.576 81.705 83.572 81.704 83.571 81.704C83.167 81.551 82.177 81.343 80.648 81.518C80.381 81.311 80.058 81.136 79.671 81.028C79.575 81.001 79.48 80.982 79.387 80.967C80.897 79.447 82.35 79.487 82.63 79.472C82.642 79.471 82.65 79.469 82.657 79.467C82.659 79.466 82.661 79.465 82.662 79.464C82.666 79.462 82.669 79.459 82.671 79.457C82.672 79.456 82.672 79.455 82.673 79.454C82.674 79.45 82.673 79.445 82.669 79.439C82.665 79.433 82.658 79.427 82.65 79.421C82.649 79.42 82.648 79.42 82.647 79.419C82.459 79.281 81.265 78.974 79.647 79.712C78.836 80.082 78.239 80.68 77.817 81.252C77.796 81.264 77.775 81.276 77.755 81.289C77.749 81.292 77.744 81.295 77.738 81.299C77.64 81.359 77.546 81.426 77.455 81.499C77.531 79.39 78.97 77.484 78.97 77.484C78.872 77.545 78.779 77.61 78.688 77.677C78.685 77.68 78.681 77.682 78.677 77.684C78.669 77.691 78.656 77.701 78.641 77.713C77.149 78.849 76.584 80.754 76.374 82.161C75.899 79.507 76.847 77.44 76.979 76.973C76.979 76.972 76.979 76.972 76.979 76.971C76.984 76.954 76.987 76.939 76.989 76.927C76.99 76.923 76.99 76.92 76.991 76.916C76.993 76.905 76.994 76.895 76.993 76.888C76.993 76.887 76.992 76.886 76.992 76.885C76.991 76.88 76.988 76.876 76.985 76.875C76.984 76.875 76.983 76.874 76.982 76.874C76.97 76.872 76.949 76.884 76.916 76.913C76.916 76.913 76.914 76.916 76.913 76.917C76.902 76.927 76.891 76.937 76.877 76.951C75.51 78.286 75.37 80.743 75.454 82.377C74.018 79.763 72 79.587 70.857 80.619C70.855 80.62 70.851 80.623 70.851 80.623C70.845 80.628 70.84 80.634 70.835 80.639C70.789 80.682 70.743 80.726 70.7 80.773C70.494 80.996 72.209 79.372 74.385 82.162C74.891 82.811 75.387 84.398 75.635 85.39C75.541 85.194 75.434 85.01 75.313 84.844C75.026 84.122 74.371 82.855 73.114 82.103C73.092 82.089 73.07 82.076 73.047 82.063C72.825 81.936 72.599 81.838 72.372 81.767H72.374C72.372 81.766 72.37 81.766 72.367 81.765C72.271 81.735 72.175 81.71 72.079 81.69C72.068 81.688 72.057 81.685 72.046 81.683C71.949 81.663 71.852 81.648 71.756 81.637C71.755 81.637 71.754 81.637 71.754 81.637C71.754 81.637 71.753 81.637 71.752 81.637C70.263 81.479 68.873 82.422 68.59 83.951C68.586 83.971 68.584 83.986 68.584 83.995C68.584 83.996 68.584 83.997 68.584 83.997C68.584 84 68.585 84.002 68.585 84.004C68.585 84.005 68.585 84.007 68.586 84.008C68.587 84.009 68.587 84.009 68.588 84.009C68.589 84.01 68.59 84.01 68.592 84.009C68.593 84.009 68.593 84.008 68.594 84.008C68.602 84.003 68.614 83.987 68.632 83.96C68.632 83.959 68.633 83.959 68.633 83.959C68.635 83.956 68.637 83.953 68.639 83.95C68.804 83.701 69.361 82.732 70.476 82.265C70.476 82.265 72.554 82.079 74.177 84.064C74.114 84.046 74.05 84.031 73.986 84.017C73.988 84.017 73.991 84.017 73.993 84.017C73.985 84.015 73.977 84.014 73.969 84.013C73.935 84.006 73.901 84.001 73.867 83.996C73.82 83.988 73.773 83.981 73.725 83.975C73.684 83.97 73.644 83.966 73.602 83.963C73.557 83.959 73.512 83.957 73.466 83.956C73.426 83.954 73.386 83.952 73.346 83.952C73.268 83.952 73.19 83.954 73.112 83.959C72.858 83.975 72.604 84.019 72.359 84.086C71.99 84.002 71.596 83.951 71.179 83.951C69.29 83.951 68.178 84.559 67.795 84.855C67.795 84.855 67.794 84.856 67.793 84.856C67.79 84.859 67.787 84.861 67.784 84.864C67.687 84.94 67.64 84.994 67.643 85.008C67.643 85.009 67.643 85.01 67.643 85.01C67.644 85.011 67.646 85.012 67.647 85.012C67.648 85.012 67.649 85.013 67.65 85.013C67.654 85.013 67.659 85.011 67.666 85.008C67.793 84.955 69.286 84.297 71.259 84.604C71.182 84.661 71.109 84.721 71.042 84.785C70.247 85.54 70.077 86.359 70.041 86.657V86.659C70.041 86.662 70.04 86.664 70.04 86.666C70.039 86.672 70.039 86.677 70.038 86.683C70.036 86.699 70.035 86.712 70.034 86.724C70.034 86.727 70.034 86.729 70.033 86.732C70.032 86.744 70.031 86.754 70.031 86.761C70.031 86.762 70.031 86.763 70.031 86.764C70.031 86.771 70.031 86.775 70.031 86.775C70.031 86.775 70.836 85.527 72.037 84.774C72.926 85.022 73.883 85.483 74.838 86.28C74.797 86.275 74.757 86.273 74.717 86.272C74.71 86.268 74.703 86.263 74.697 86.259C74.694 86.257 74.692 86.256 74.689 86.254C74.196 85.944 73.298 85.587 72.082 85.96C70.324 86.499 69.719 88.154 69.692 88.635C69.692 88.636 69.692 88.637 69.692 88.638C69.691 88.657 69.691 88.673 69.692 88.688C69.692 88.69 69.692 88.692 69.692 88.694C69.693 88.709 69.695 88.723 69.698 88.734C69.7 88.741 69.704 88.746 69.708 88.749C69.71 88.75 69.712 88.75 69.713 88.751C69.716 88.752 69.72 88.752 69.723 88.751C69.726 88.75 69.728 88.75 69.731 88.748C69.738 88.745 69.745 88.741 69.753 88.735C69.753 88.735 69.755 88.735 69.755 88.734C70.03 88.519 71.244 86.562 73.648 86.572C73.564 86.612 73.481 86.651 73.4 86.689C73.399 86.69 73.397 86.691 73.396 86.691C73.345 86.715 73.295 86.739 73.246 86.761C73.158 86.8 73.063 86.851 72.963 86.917C72.593 87.013 72.196 87.174 71.781 87.424C69.536 88.778 69.519 91.315 69.536 91.47C69.536 91.474 69.538 91.475 69.539 91.474C69.54 91.474 69.54 91.473 69.541 91.472C69.542 91.47 69.544 91.467 69.545 91.464C69.623 91.295 70.209 89.025 72.052 87.994C71.726 88.666 71.536 89.647 71.732 91.054C71.732 91.054 71.753 90.968 71.793 90.818C71.947 90.242 72.39 88.726 73.062 87.601C74.285 87.313 75.422 87.948 75.886 88.244C75.914 88.262 75.939 88.278 75.962 88.293C75.983 88.337 76.004 88.38 76.023 88.422C76.014 88.432 76.007 88.443 76.002 88.456C75.992 88.481 75.99 88.508 75.989 88.534L76.029 89.767L76.07 91C76.075 91.41 76.052 91.82 76.034 92.23C76.016 92.641 75.995 93.052 75.983 93.462C75.972 93.873 75.978 94.285 75.977 94.696L75.983 95.929C75.984 96.135 75.98 96.34 75.978 96.546C75.975 96.75 75.974 96.957 75.977 97.162L75.986 97.778C75.987 97.83 75.986 97.882 75.986 97.935C75.978 97.92 75.973 97.91 75.973 97.91C75.973 97.91 75.976 97.925 75.984 97.953C75.984 97.954 75.985 97.957 75.986 97.958C75.986 98.103 75.984 98.248 75.972 98.393C75.947 98.804 75.945 99.216 75.941 99.627C75.936 100.449 75.942 101.271 75.924 102.092C75.916 102.503 75.892 102.913 75.877 103.325C75.865 103.736 75.858 104.147 75.856 104.558C75.853 104.969 75.853 105.38 75.856 105.791C75.858 106.202 75.863 106.613 75.869 107.025V107.037L75.881 107.039C76.026 107.061 76.171 107.071 76.316 107.072C76.461 107.073 76.607 107.063 76.752 107.041L76.767 107.039L76.766 107.022L76.683 105.877C76.67 105.686 76.652 105.495 76.65 105.305C76.647 105.114 76.65 104.922 76.655 104.731C76.676 103.966 76.71 103.198 76.657 102.432C76.651 102.336 76.642 102.241 76.632 102.145L76.606 101.86C76.594 101.669 76.586 101.479 76.587 101.287C76.587 100.904 76.607 100.522 76.627 100.141C76.647 99.759 76.668 99.375 76.678 98.992C76.689 98.608 76.691 98.226 76.684 97.842L76.654 96.693L76.648 96.119L76.653 95.545C76.656 95.354 76.663 95.163 76.668 94.971L76.692 94.397L76.754 93.249C76.765 93.058 76.769 92.866 76.776 92.675C76.779 92.484 76.785 92.291 76.786 92.1C76.79 91.718 76.785 91.334 76.778 90.951C76.774 90.76 76.769 90.569 76.762 90.377C76.755 90.185 76.745 89.993 76.756 89.803C76.766 89.612 76.787 89.422 76.812 89.232L76.852 88.948C76.853 88.94 76.854 88.932 76.855 88.924L76.914 88.837C76.883 88.88 76.863 88.91 76.855 88.923C76.872 88.894 76.973 88.721 77.138 88.471C77.549 88.093 78.3 87.644 79.455 87.833C79.537 87.846 79.617 87.864 79.697 87.884C81.189 88.271 82.16 89.857 82.363 90.099L82.364 90.1C82.366 90.103 82.368 90.104 82.37 90.107C82.373 90.111 82.377 90.114 82.38 90.117C82.383 90.12 82.387 90.123 82.389 90.125C82.391 90.127 82.393 90.128 82.395 90.129C82.397 90.13 82.399 90.13 82.4 90.13C82.402 90.13 82.402 90.127 82.403 90.124C82.403 90.123 82.404 90.122 82.404 90.12C82.404 90.114 82.403 90.106 82.401 90.095C82.324 89.748 81.706 87.756 80.048 87.409C79.702 87.336 79.389 87.315 79.109 87.324C81.462 86.65 82.925 87.573 83.59 88.19C83.634 88.332 83.668 88.461 83.695 88.571C83.738 88.745 83.761 88.871 83.776 88.928C83.777 88.932 83.778 88.936 83.779 88.939C83.78 88.944 83.781 88.947 83.783 88.951C83.784 88.955 83.786 88.958 83.787 88.96C83.788 88.961 83.789 88.963 83.789 88.963C83.79 88.964 83.791 88.962 83.792 88.96C83.793 88.959 83.793 88.958 83.793 88.957C83.794 88.951 83.795 88.943 83.796 88.93C83.802 88.841 83.826 88.671 83.847 88.453C83.959 88.58 84.015 88.662 84.015 88.662C84.015 88.662 84.016 88.658 84.016 88.65C84.018 88.61 84.012 88.468 83.866 88.227C83.913 87.554 83.892 86.592 83.399 85.976C82.958 85.427 82.219 85.115 81.337 85.07C81.332 85.069 81.326 85.068 81.322 85.067C81.289 85.065 81.255 85.066 81.221 85.065C81.189 85.064 81.157 85.063 81.125 85.063C81.057 85.063 80.987 85.065 80.918 85.068C80.875 85.07 80.831 85.073 80.787 85.076C80.727 85.08 80.667 85.085 80.605 85.092C80.564 85.096 80.522 85.102 80.48 85.108C80.429 85.115 80.378 85.122 80.327 85.13C80.284 85.137 80.241 85.144 80.197 85.152C80.143 85.162 80.088 85.174 80.034 85.185C79.994 85.194 79.954 85.202 79.914 85.211C79.826 85.232 79.737 85.255 79.648 85.281C79.606 85.293 79.564 85.307 79.522 85.32C79.483 85.332 79.443 85.343 79.404 85.357C79.414 85.354 79.427 85.35 79.443 85.346C79.395 85.362 79.347 85.376 79.299 85.392C78.975 85.505 78.684 85.689 78.426 85.904C77.932 86.318 77.561 86.855 77.318 87.276C78.752 84.386 81.433 83.881 81.433 83.881C84.073 84.275 84.524 85.869 84.66 86.225C84.66 86.226 84.66 86.226 84.66 86.227C84.661 86.229 84.662 86.231 84.662 86.233C84.666 86.244 84.67 86.254 84.674 86.262C84.675 86.265 84.677 86.269 84.678 86.272C84.683 86.282 84.687 86.288 84.691 86.292C84.692 86.293 84.693 86.294 84.695 86.294C84.698 86.296 84.701 86.296 84.704 86.294C84.705 86.293 84.706 86.293 84.707 86.292C84.711 86.288 84.715 86.281 84.719 86.27C84.824 85.969 84.944 84.749 84.001 83.755ZM81.722 85.64C82.613 86.147 83.118 86.969 83.407 87.669C83.154 87.423 82.799 87.131 82.296 86.795C81.235 86.085 79.917 86.119 78.924 86.464C80.298 85.472 81.722 85.64 81.722 85.64ZM77.717 82.963C78.363 81.739 79.362 81.575 79.362 81.575C79.493 81.605 79.616 81.641 79.736 81.68C78.768 81.949 78.125 82.481 77.717 82.963ZM76.031 87.191C76.019 87.168 76.008 87.145 75.995 87.123C76.006 87.142 76.018 87.163 76.029 87.183L76.031 87.191ZM75.936 87.028C75.95 87.05 75.965 87.071 75.979 87.094C75.965 87.072 75.95 87.05 75.936 87.028ZM74.385 84.966C74.028 84.731 73.593 84.492 73.094 84.305C73.119 84.299 73.144 84.291 73.169 84.286C73.168 84.286 73.692 84.334 74.385 84.966Z" fill="#345968"/>
</g>
</g>
<g id="Clip path group_5">
<mask id="mask4_0_1" style="mask-type:luminance" maskUnits="userSpaceOnUse" x="-58" y="-2" width="200" height="122">
<g id="SVGID_00000077283932440843401680000014491191751515782315__5">
<path id="Vector_9" d="M142 -2H-58V119.69H142V-2Z" fill="white"/>
</g>
</mask>
<g mask="url(#mask4_0_1)">
<path id="Vector_10" d="M67.1 87.698C66.528 87.095 65.312 86.858 64.099 87.03C64.092 87.031 64.085 87.032 64.078 87.033C63.877 87.062 63.676 87.103 63.478 87.155C63.477 87.155 63.475 87.156 63.474 87.156C63.375 87.182 63.278 87.211 63.181 87.243C63.179 87.244 63.177 87.244 63.175 87.245C62.719 87.396 62.289 87.61 61.923 87.893C61.264 88.402 60.829 88.903 60.541 89.32C61.138 87.279 62.349 86.341 63.553 85.934C64.003 86.179 64.334 86.46 64.536 86.66C64.545 86.669 64.554 86.678 64.563 86.687C64.578 86.702 64.591 86.716 64.605 86.73C64.649 86.776 64.685 86.816 64.712 86.847C64.714 86.849 64.716 86.851 64.718 86.853C64.735 86.873 64.748 86.888 64.757 86.9C64.759 86.902 64.761 86.905 64.762 86.907C64.766 86.912 64.769 86.916 64.771 86.919C64.773 86.921 64.776 86.925 64.776 86.925C64.765 86.892 64.753 86.858 64.74 86.822C64.728 86.791 64.715 86.759 64.702 86.726C64.701 86.723 64.7 86.72 64.698 86.717C64.58 86.435 64.386 86.096 64.097 85.784C65.478 85.482 66.721 85.781 66.844 85.781C66.853 85.781 66.86 85.78 66.865 85.778C66.866 85.778 66.867 85.777 66.868 85.776C66.871 85.775 66.874 85.773 66.875 85.771C66.875 85.77 66.876 85.769 66.876 85.768C66.877 85.765 66.876 85.763 66.874 85.759C66.874 85.758 66.873 85.757 66.872 85.756C66.87 85.752 66.866 85.748 66.861 85.744C66.86 85.743 66.859 85.742 66.857 85.74C66.851 85.735 66.843 85.729 66.834 85.723C66.827 85.719 66.819 85.714 66.811 85.71C66.808 85.708 66.805 85.706 66.801 85.704C66.791 85.699 66.779 85.693 66.767 85.687C66.765 85.686 66.763 85.685 66.762 85.684C66.736 85.672 66.708 85.66 66.674 85.646C66.674 85.646 66.67 85.645 66.669 85.645C66.265 85.492 65.275 85.284 63.746 85.459C63.479 85.252 63.156 85.077 62.769 84.969C62.673 84.942 62.579 84.923 62.485 84.907C63.995 83.387 65.448 83.427 65.728 83.412C65.74 83.411 65.748 83.41 65.755 83.407C65.757 83.406 65.759 83.405 65.76 83.405C65.764 83.403 65.767 83.4 65.769 83.398C65.77 83.397 65.77 83.396 65.771 83.395C65.772 83.391 65.771 83.386 65.767 83.381C65.763 83.375 65.756 83.369 65.748 83.363C65.747 83.362 65.746 83.362 65.745 83.361C65.557 83.223 64.363 82.916 62.745 83.654C61.934 84.024 61.337 84.622 60.915 85.194C60.894 85.206 60.873 85.218 60.853 85.231C60.847 85.234 60.841 85.237 60.836 85.241C60.738 85.301 60.644 85.368 60.553 85.441C60.629 83.332 62.068 81.426 62.068 81.426C61.97 81.487 61.877 81.552 61.786 81.619C61.783 81.622 61.779 81.624 61.775 81.626C61.767 81.633 61.754 81.643 61.739 81.655C60.247 82.79 59.682 84.696 59.471 86.103C58.996 83.449 59.944 81.381 60.076 80.915C60.076 80.914 60.076 80.914 60.076 80.913C60.081 80.896 60.084 80.882 60.086 80.869C60.087 80.865 60.087 80.862 60.088 80.858C60.09 80.847 60.09 80.837 60.09 80.83C60.09 80.829 60.089 80.828 60.089 80.827C60.088 80.822 60.085 80.818 60.082 80.817C60.081 80.817 60.08 80.816 60.079 80.816C60.067 80.814 60.046 80.826 60.013 80.855C60.013 80.855 60.011 80.858 60.01 80.859C59.999 80.869 59.988 80.879 59.974 80.893C58.607 82.228 58.468 84.685 58.551 86.319C57.115 83.705 55.097 83.529 53.954 84.561C53.952 84.562 53.948 84.565 53.948 84.565C53.942 84.57 53.937 84.576 53.932 84.581C53.886 84.624 53.841 84.668 53.797 84.715C53.591 84.938 55.306 83.314 57.482 86.104C57.988 86.753 58.484 88.34 58.732 89.332C58.638 89.137 58.531 88.952 58.41 88.786C58.123 88.064 57.468 86.797 56.211 86.045C56.189 86.031 56.167 86.018 56.144 86.005C55.922 85.878 55.696 85.78 55.469 85.709H55.471C55.469 85.708 55.467 85.708 55.464 85.707C55.368 85.677 55.272 85.652 55.176 85.631C55.165 85.629 55.154 85.626 55.143 85.624C55.046 85.604 54.949 85.589 54.853 85.578C54.852 85.578 54.851 85.578 54.851 85.578C54.851 85.578 54.85 85.578 54.849 85.578C53.36 85.42 51.97 86.363 51.687 87.892C51.683 87.912 51.681 87.926 51.681 87.936C51.681 87.937 51.681 87.938 51.681 87.938C51.681 87.941 51.682 87.943 51.682 87.945C51.682 87.946 51.682 87.948 51.683 87.949C51.683 87.95 51.684 87.95 51.685 87.95C51.686 87.951 51.687 87.951 51.689 87.95C51.69 87.95 51.69 87.949 51.691 87.949C51.699 87.944 51.711 87.928 51.729 87.901L51.73 87.9C51.732 87.897 51.734 87.894 51.736 87.891C51.901 87.642 52.458 86.674 53.573 86.207C53.573 86.207 55.651 86.021 57.274 88.006C57.211 87.988 57.147 87.973 57.083 87.959C57.085 87.959 57.088 87.959 57.09 87.959C57.082 87.957 57.074 87.957 57.066 87.955C57.032 87.948 56.998 87.943 56.964 87.938C56.917 87.93 56.87 87.923 56.822 87.917C56.781 87.912 56.741 87.908 56.699 87.905C56.654 87.901 56.609 87.899 56.563 87.898C56.523 87.897 56.483 87.894 56.442 87.894C56.364 87.894 56.286 87.896 56.208 87.901C55.954 87.917 55.7 87.961 55.455 88.028C55.086 87.944 54.692 87.893 54.275 87.893C52.386 87.893 51.274 88.501 50.891 88.797L50.89 88.798C50.887 88.801 50.884 88.803 50.881 88.806C50.784 88.882 50.737 88.936 50.739 88.951C50.739 88.952 50.739 88.952 50.739 88.953C50.74 88.954 50.741 88.955 50.743 88.955C50.744 88.955 50.745 88.956 50.746 88.956C50.75 88.956 50.755 88.954 50.761 88.951C50.889 88.898 52.381 88.24 54.354 88.547C54.277 88.604 54.204 88.664 54.137 88.728C53.342 89.483 53.172 90.302 53.136 90.6C53.136 90.601 53.136 90.602 53.136 90.602C53.136 90.605 53.136 90.607 53.135 90.609C53.134 90.615 53.134 90.62 53.133 90.626C53.131 90.641 53.13 90.655 53.129 90.667C53.129 90.67 53.129 90.672 53.128 90.675C53.127 90.687 53.126 90.697 53.126 90.704C53.126 90.705 53.126 90.706 53.126 90.707C53.126 90.714 53.126 90.718 53.126 90.718C53.126 90.718 53.931 89.47 55.132 88.717C56.022 88.965 56.978 89.426 57.933 90.223C57.892 90.218 57.852 90.216 57.812 90.215C57.805 90.211 57.798 90.206 57.792 90.202C57.789 90.2 57.787 90.199 57.784 90.197C57.291 89.887 56.393 89.53 55.177 89.903C53.419 90.442 52.814 92.097 52.787 92.578C52.787 92.579 52.787 92.58 52.787 92.581C52.786 92.6 52.786 92.616 52.787 92.631C52.787 92.633 52.787 92.635 52.787 92.637C52.788 92.653 52.79 92.667 52.793 92.677C52.795 92.685 52.799 92.689 52.803 92.692C52.805 92.693 52.807 92.693 52.808 92.694C52.811 92.695 52.815 92.695 52.818 92.694C52.821 92.693 52.823 92.693 52.826 92.691C52.833 92.688 52.84 92.684 52.848 92.678C52.848 92.678 52.848 92.678 52.849 92.677C52.849 92.677 52.85 92.677 52.85 92.676C53.125 92.461 54.339 90.505 56.743 90.515C56.659 90.554 56.576 90.594 56.495 90.632C56.494 90.633 56.492 90.634 56.491 90.634C56.44 90.658 56.39 90.682 56.341 90.704C56.253 90.743 56.158 90.794 56.058 90.86C55.688 90.956 55.291 91.117 54.876 91.367C52.631 92.721 52.614 95.258 52.631 95.413C52.631 95.417 52.633 95.418 52.634 95.417C52.634 95.417 52.635 95.416 52.636 95.415C52.637 95.413 52.639 95.411 52.64 95.407C52.718 95.238 53.304 92.968 55.147 91.937C54.821 92.609 54.632 93.59 54.827 94.997C54.827 94.997 54.848 94.911 54.888 94.761C55.042 94.185 55.485 92.669 56.157 91.544C57.38 91.256 58.517 91.891 58.981 92.187C59.009 92.205 59.034 92.221 59.057 92.236C59.078 92.28 59.099 92.323 59.119 92.365C59.11 92.375 59.103 92.386 59.098 92.399C59.088 92.424 59.086 92.451 59.085 92.477L59.125 93.71L59.166 94.943C59.171 95.353 59.148 95.763 59.13 96.173C59.112 96.584 59.091 96.995 59.079 97.406C59.068 97.817 59.074 98.229 59.073 98.64L59.079 99.873C59.08 100.078 59.076 100.284 59.074 100.49C59.071 100.694 59.07 100.901 59.073 101.106L59.082 101.722C59.083 101.774 59.082 101.826 59.082 101.879C59.074 101.865 59.069 101.854 59.069 101.854C59.069 101.854 59.072 101.869 59.08 101.897C59.081 101.898 59.081 101.901 59.082 101.902C59.082 102.047 59.08 102.192 59.068 102.337C59.043 102.748 59.041 103.16 59.037 103.571C59.032 104.393 59.038 105.215 59.02 106.036C59.012 106.447 58.988 106.857 58.973 107.269C58.961 107.68 58.954 108.091 58.952 108.502C58.949 108.913 58.949 109.324 58.952 109.735C58.954 110.146 58.959 110.557 58.965 110.969V110.981L58.977 110.983C59.122 111.005 59.267 111.015 59.412 111.016C59.558 111.017 59.703 111.007 59.848 110.985L59.863 110.983L59.862 110.966L59.779 109.821C59.766 109.63 59.748 109.438 59.746 109.248C59.743 109.057 59.746 108.866 59.751 108.674C59.772 107.909 59.806 107.141 59.753 106.375C59.747 106.279 59.738 106.184 59.728 106.088L59.702 105.803C59.69 105.612 59.682 105.422 59.683 105.231C59.683 104.848 59.703 104.466 59.723 104.085C59.744 103.702 59.764 103.319 59.774 102.936C59.785 102.552 59.787 102.17 59.78 101.786L59.75 100.637L59.744 100.063L59.749 99.489C59.752 99.298 59.759 99.107 59.764 98.915L59.788 98.341L59.85 97.193C59.861 97.002 59.865 96.81 59.872 96.619C59.876 96.428 59.881 96.235 59.882 96.044C59.886 95.662 59.881 95.278 59.874 94.895C59.87 94.704 59.865 94.513 59.858 94.321C59.851 94.129 59.841 93.937 59.852 93.747C59.862 93.556 59.883 93.366 59.908 93.175L59.948 92.891C59.949 92.883 59.95 92.875 59.951 92.867L60.01 92.78C59.979 92.823 59.959 92.854 59.951 92.867C59.951 92.867 59.951 92.866 59.951 92.865C59.968 92.836 60.069 92.664 60.234 92.414C60.645 92.036 61.396 91.587 62.551 91.776C62.633 91.789 62.714 91.806 62.793 91.827C64.285 92.214 65.256 93.8 65.459 94.042C65.459 94.042 65.459 94.043 65.46 94.043C65.462 94.046 65.464 94.047 65.466 94.05C65.469 94.054 65.473 94.057 65.475 94.06C65.478 94.064 65.482 94.066 65.484 94.068C65.486 94.07 65.488 94.071 65.49 94.072C65.492 94.073 65.494 94.073 65.495 94.073C65.497 94.072 65.498 94.07 65.498 94.067C65.498 94.066 65.499 94.065 65.499 94.063C65.499 94.057 65.498 94.049 65.496 94.038C65.419 93.691 64.802 91.699 63.143 91.352C62.797 91.279 62.484 91.258 62.204 91.267C64.557 90.593 66.02 91.516 66.685 92.133C66.729 92.275 66.763 92.404 66.79 92.514C66.833 92.688 66.856 92.814 66.871 92.871C66.872 92.875 66.873 92.879 66.874 92.882C66.875 92.887 66.877 92.89 66.878 92.894C66.879 92.898 66.881 92.901 66.882 92.903C66.883 92.904 66.884 92.906 66.884 92.906C66.885 92.907 66.886 92.905 66.887 92.903C66.887 92.902 66.888 92.901 66.888 92.899C66.889 92.893 66.89 92.885 66.891 92.872C66.897 92.783 66.921 92.613 66.942 92.395C67.054 92.521 67.11 92.604 67.11 92.604C67.11 92.604 67.111 92.6 67.111 92.592C67.113 92.552 67.107 92.41 66.961 92.169C67.008 91.496 66.987 90.534 66.493 89.918C66.052 89.369 65.313 89.057 64.431 89.012C64.426 89.011 64.42 89.01 64.416 89.009C64.383 89.008 64.349 89.008 64.315 89.007C64.283 89.006 64.251 89.005 64.219 89.005C64.151 89.005 64.081 89.007 64.012 89.01C63.968 89.012 63.925 89.015 63.881 89.018C63.821 89.022 63.761 89.027 63.699 89.033C63.658 89.037 63.616 89.043 63.574 89.049C63.523 89.056 63.472 89.063 63.421 89.071C63.378 89.078 63.335 89.085 63.291 89.093C63.237 89.103 63.182 89.115 63.128 89.126C63.088 89.135 63.048 89.143 63.008 89.152C62.92 89.173 62.831 89.196 62.742 89.222C62.7 89.234 62.658 89.248 62.616 89.261C62.577 89.273 62.537 89.284 62.498 89.298C62.508 89.295 62.521 89.291 62.537 89.287C62.489 89.303 62.441 89.316 62.393 89.333C62.069 89.446 61.778 89.629 61.52 89.845C61.026 90.259 60.655 90.796 60.412 91.217C61.846 88.327 64.527 87.822 64.527 87.822C67.167 88.217 67.618 89.81 67.754 90.166C67.754 90.167 67.754 90.167 67.754 90.168C67.755 90.17 67.756 90.172 67.756 90.174C67.76 90.185 67.764 90.195 67.768 90.203C67.769 90.206 67.771 90.21 67.772 90.213C67.777 90.223 67.781 90.229 67.785 90.233C67.786 90.234 67.787 90.235 67.789 90.235C67.792 90.237 67.795 90.237 67.798 90.235C67.799 90.234 67.8 90.234 67.801 90.233C67.805 90.229 67.809 90.222 67.813 90.211C67.923 89.913 68.043 88.692 67.1 87.698ZM64.82 89.584C65.711 90.091 66.216 90.913 66.505 91.613C66.252 91.367 65.897 91.075 65.394 90.739C64.333 90.029 63.015 90.063 62.022 90.408C63.397 89.416 64.82 89.584 64.82 89.584ZM60.816 86.907C61.462 85.683 62.461 85.519 62.461 85.519C62.592 85.549 62.715 85.585 62.835 85.624C61.867 85.893 61.223 86.425 60.816 86.907ZM59.129 91.135C59.117 91.112 59.106 91.089 59.093 91.067C59.104 91.086 59.116 91.107 59.127 91.127L59.129 91.135ZM59.034 90.971C59.048 90.993 59.062 91.014 59.077 91.038C59.064 91.015 59.048 90.993 59.034 90.971ZM57.483 88.91C57.126 88.675 56.691 88.436 56.192 88.249C56.217 88.243 56.242 88.235 56.267 88.23C56.267 88.229 56.79 88.278 57.483 88.91Z" fill="#345968"/>
</g>
</g>
<g id="Clip path group_6">
<mask id="mask5_0_1" style="mask-type:luminance" maskUnits="userSpaceOnUse" x="0" y="0" width="200" height="122">
<g id="SVGID_00000077283932440843401680000014491191751515782315__6">
<path id="Vector_11" d="M200 0H0V121.69H200V0Z" fill="white"/>
</g>
</mask>
<g mask="url(#mask5_0_1)">
<path id="Vector_12" d="M133.441 94.99C132.98 94.504 132 94.313 131.022 94.451C131.016 94.452 131.011 94.453 131.005 94.454C130.843 94.478 130.681 94.51 130.522 94.552C130.521 94.552 130.52 94.552 130.519 94.553C130.439 94.574 130.361 94.598 130.283 94.623C130.281 94.624 130.279 94.624 130.278 94.624H130.279C129.911 94.746 129.564 94.919 129.269 95.146C128.738 95.557 128.387 95.96 128.155 96.296C128.636 94.651 129.612 93.895 130.582 93.567C130.945 93.765 131.211 93.991 131.374 94.152C131.382 94.159 131.389 94.167 131.395 94.174C131.407 94.186 131.418 94.197 131.429 94.209C131.464 94.246 131.493 94.278 131.515 94.303C131.516 94.305 131.518 94.306 131.519 94.308C131.533 94.324 131.543 94.336 131.551 94.346C131.552 94.348 131.554 94.35 131.555 94.351C131.558 94.355 131.561 94.358 131.563 94.36C131.564 94.362 131.567 94.365 131.567 94.365C131.558 94.339 131.549 94.311 131.538 94.282C131.529 94.257 131.518 94.231 131.507 94.204C131.506 94.201 131.505 94.199 131.504 94.197C131.409 93.969 131.252 93.696 131.019 93.445C132.132 93.202 133.134 93.442 133.233 93.442C133.24 93.442 133.246 93.441 133.25 93.44C133.251 93.44 133.252 93.439 133.253 93.439C133.256 93.438 133.258 93.436 133.259 93.435C133.259 93.434 133.26 93.434 133.26 93.433C133.26 93.431 133.26 93.429 133.259 93.426C133.259 93.425 133.258 93.424 133.258 93.423C133.256 93.42 133.253 93.417 133.249 93.413C133.248 93.412 133.247 93.411 133.246 93.41C133.241 93.406 133.235 93.401 133.227 93.396C133.222 93.393 133.215 93.389 133.209 93.385C133.206 93.383 133.204 93.382 133.201 93.381C133.193 93.377 133.183 93.372 133.174 93.367C133.173 93.366 133.171 93.366 133.17 93.365C133.149 93.355 133.126 93.345 133.099 93.335C133.099 93.335 133.096 93.334 133.095 93.334C132.769 93.211 131.971 93.043 130.739 93.184C130.524 93.017 130.264 92.876 129.952 92.789C129.875 92.768 129.798 92.752 129.723 92.74C130.94 91.515 132.111 91.548 132.337 91.535C132.347 91.534 132.353 91.533 132.359 91.531C132.361 91.53 132.362 91.53 132.363 91.529C132.366 91.527 132.369 91.525 132.37 91.523C132.37 91.522 132.371 91.522 132.371 91.52C132.372 91.517 132.371 91.513 132.368 91.508C132.365 91.503 132.359 91.498 132.353 91.493C132.352 91.492 132.351 91.492 132.351 91.491C132.199 91.38 131.237 91.132 129.933 91.727C129.279 92.025 128.798 92.507 128.458 92.969C128.441 92.979 128.424 92.989 128.408 92.999C128.403 93.002 128.399 93.004 128.394 93.007C128.394 93.007 128.394 93.007 128.395 93.007C128.316 93.056 128.24 93.11 128.166 93.168C128.227 91.468 129.387 89.932 129.387 89.932C129.308 89.981 129.233 90.034 129.16 90.088C129.157 90.09 129.154 90.092 129.151 90.094C129.144 90.099 129.134 90.108 129.122 90.118C127.92 91.033 127.464 92.569 127.294 93.703C126.911 91.564 127.675 89.897 127.782 89.521C127.782 89.52 127.782 89.52 127.782 89.52C127.786 89.507 127.788 89.494 127.79 89.484C127.791 89.481 127.791 89.478 127.792 89.475C127.793 89.466 127.794 89.458 127.793 89.453C127.793 89.452 127.792 89.452 127.792 89.451C127.791 89.447 127.789 89.444 127.786 89.442C127.785 89.442 127.785 89.441 127.784 89.441C127.774 89.439 127.757 89.449 127.731 89.473C127.731 89.473 127.729 89.475 127.728 89.476C127.719 89.484 127.71 89.492 127.699 89.503C126.597 90.579 126.485 92.559 126.552 93.876C125.394 91.769 123.768 91.627 122.847 92.459C122.846 92.46 122.842 92.462 122.842 92.462C122.837 92.466 122.834 92.471 122.829 92.475C122.792 92.51 122.755 92.545 122.72 92.583C122.554 92.763 123.936 91.454 125.69 93.702C126.098 94.225 126.498 95.504 126.698 96.304C126.622 96.146 126.536 95.997 126.438 95.864C126.207 95.282 125.679 94.261 124.666 93.655C124.648 93.644 124.631 93.633 124.612 93.623C124.433 93.52 124.251 93.442 124.068 93.384C124.066 93.383 124.065 93.383 124.064 93.383C123.987 93.359 123.909 93.339 123.832 93.322C123.823 93.32 123.814 93.318 123.805 93.316C123.727 93.3 123.649 93.288 123.571 93.279C123.57 93.279 123.57 93.279 123.569 93.279C122.369 93.152 121.248 93.912 121.02 95.144C121.017 95.161 121.016 95.172 121.015 95.18C121.015 95.181 121.015 95.181 121.015 95.182C121.015 95.185 121.015 95.186 121.016 95.188C121.016 95.189 121.016 95.19 121.017 95.191C121.017 95.192 121.018 95.192 121.019 95.192C121.02 95.192 121.021 95.193 121.022 95.192L121.023 95.191C121.029 95.187 121.039 95.174 121.054 95.153L121.055 95.152C121.057 95.149 121.058 95.147 121.06 95.145C121.193 94.944 121.642 94.164 122.541 93.787C122.541 93.787 124.216 93.637 125.524 95.237C125.473 95.223 125.422 95.21 125.37 95.199C125.372 95.199 125.374 95.199 125.376 95.199C125.37 95.198 125.363 95.197 125.357 95.196C125.33 95.19 125.302 95.187 125.275 95.182C125.237 95.176 125.199 95.17 125.16 95.165C125.127 95.161 125.094 95.158 125.061 95.155C125.025 95.152 124.988 95.15 124.952 95.149C124.92 95.148 124.887 95.146 124.855 95.146C124.792 95.146 124.73 95.147 124.666 95.151C124.461 95.164 124.257 95.2 124.059 95.253C123.762 95.185 123.444 95.144 123.108 95.144C121.586 95.144 120.689 95.634 120.38 95.872L120.379 95.873C120.376 95.875 120.374 95.877 120.371 95.879C120.293 95.94 120.255 95.983 120.257 95.995C120.257 95.995 120.257 95.996 120.257 95.997C120.258 95.998 120.259 95.998 120.26 95.998C120.261 95.998 120.261 95.999 120.263 95.999C120.266 95.999 120.27 95.998 120.276 95.995C120.379 95.953 121.582 95.422 123.172 95.67C123.11 95.716 123.051 95.764 122.997 95.816C122.356 96.424 122.219 97.084 122.19 97.325V97.327C122.19 97.329 122.19 97.331 122.189 97.333C122.188 97.338 122.188 97.342 122.188 97.347C122.187 97.359 122.185 97.37 122.185 97.38C122.185 97.382 122.185 97.384 122.185 97.386C122.184 97.396 122.184 97.404 122.183 97.409C122.183 97.41 122.183 97.411 122.183 97.411C122.183 97.416 122.183 97.42 122.183 97.42C122.183 97.42 122.831 96.414 123.8 95.808C124.517 96.008 125.288 96.379 126.057 97.022C126.024 97.018 125.992 97.016 125.959 97.015C125.954 97.012 125.948 97.008 125.943 97.005C125.941 97.004 125.939 97.002 125.937 97.001C125.54 96.751 124.816 96.463 123.836 96.764C122.419 97.199 121.931 98.533 121.909 98.92C121.909 98.921 121.909 98.921 121.909 98.922C121.908 98.937 121.908 98.95 121.909 98.962C121.909 98.964 121.909 98.965 121.909 98.967C121.91 98.979 121.911 98.991 121.914 98.999C121.916 99.005 121.918 99.009 121.922 99.011C121.923 99.012 121.925 99.012 121.926 99.012C121.928 99.013 121.931 99.013 121.934 99.012C121.936 99.012 121.938 99.011 121.941 99.01C121.946 99.008 121.952 99.004 121.959 98.999C121.959 98.999 121.96 98.999 121.961 98.999C122.182 98.826 123.161 97.25 125.098 97.257C125.03 97.289 124.964 97.321 124.898 97.351C124.897 97.352 124.896 97.352 124.895 97.353C124.854 97.372 124.814 97.391 124.774 97.409C124.704 97.44 124.626 97.482 124.546 97.535C124.247 97.613 123.928 97.742 123.593 97.944C121.783 99.035 121.769 101.08 121.783 101.205C121.783 101.208 121.784 101.209 121.786 101.208C121.786 101.208 121.787 101.207 121.788 101.206C121.789 101.205 121.79 101.202 121.791 101.199C121.854 101.063 122.326 99.233 123.812 98.402C123.549 98.944 123.397 99.734 123.554 100.868C123.554 100.868 123.571 100.799 123.603 100.678C123.727 100.214 124.084 98.992 124.626 98.085C125.611 97.853 126.528 98.365 126.902 98.603C126.924 98.617 126.945 98.63 126.963 98.643C126.98 98.678 126.996 98.713 127.012 98.747C127.005 98.755 126.999 98.764 126.995 98.774C126.987 98.794 126.986 98.816 126.985 98.837L127.017 99.83L127.05 100.823C127.054 101.153 127.036 101.484 127.021 101.814C127.006 102.145 126.989 102.476 126.98 102.807C126.971 103.138 126.976 103.47 126.975 103.801L126.98 104.794C126.98 104.96 126.977 105.125 126.976 105.291C126.974 105.455 126.972 105.622 126.975 105.788L126.982 106.285C126.982 106.327 126.982 106.369 126.982 106.411C126.976 106.399 126.972 106.391 126.972 106.391C126.972 106.391 126.975 106.403 126.981 106.425C126.981 106.426 126.982 106.428 126.982 106.429C126.982 106.546 126.98 106.663 126.971 106.78C126.951 107.111 126.949 107.443 126.946 107.774C126.942 108.436 126.947 109.099 126.932 109.761C126.925 110.092 126.906 110.422 126.894 110.754C126.884 111.085 126.879 111.416 126.877 111.747C126.875 112.078 126.875 112.409 126.877 112.74C126.878 113.071 126.883 113.402 126.888 113.734V113.743L126.898 113.745C127.015 113.763 127.131 113.771 127.249 113.772C127.366 113.773 127.484 113.764 127.6 113.747L127.612 113.745L127.611 113.732L127.544 112.809C127.533 112.655 127.519 112.501 127.517 112.347C127.514 112.193 127.517 112.039 127.521 111.885C127.538 111.268 127.565 110.65 127.522 110.032C127.517 109.955 127.51 109.878 127.502 109.801L127.481 109.572C127.472 109.418 127.465 109.265 127.466 109.111C127.466 108.803 127.482 108.494 127.498 108.187C127.515 107.879 127.531 107.569 127.539 107.261C127.548 106.952 127.549 106.643 127.544 106.334L127.52 105.408L127.515 104.945L127.519 104.482C127.522 104.328 127.527 104.174 127.531 104.02L127.551 103.558L127.601 102.633C127.61 102.479 127.613 102.325 127.619 102.171C127.622 102.017 127.627 101.862 127.627 101.707C127.631 101.399 127.626 101.09 127.621 100.781C127.618 100.627 127.613 100.473 127.608 100.318C127.603 100.163 127.594 100.009 127.603 99.856C127.611 99.702 127.628 99.549 127.648 99.395L127.68 99.166C127.681 99.159 127.682 99.153 127.683 99.146L127.73 99.076C127.705 99.11 127.689 99.135 127.683 99.145C127.697 99.122 127.778 98.982 127.911 98.781C128.242 98.477 128.847 98.115 129.779 98.267C129.845 98.277 129.91 98.292 129.974 98.308C131.176 98.62 131.959 99.898 132.123 100.093C132.123 100.093 132.123 100.094 132.124 100.094C132.126 100.096 132.127 100.097 132.129 100.099C132.132 100.102 132.134 100.105 132.137 100.107C132.14 100.11 132.142 100.112 132.144 100.114C132.146 100.115 132.147 100.116 132.149 100.117C132.15 100.117 132.152 100.118 132.153 100.118C132.154 100.118 132.155 100.116 132.156 100.113C132.156 100.112 132.157 100.111 132.157 100.11C132.157 100.105 132.156 100.099 132.154 100.09C132.092 99.81 131.594 98.205 130.258 97.925C129.979 97.866 129.727 97.849 129.501 97.857C131.398 97.313 132.577 98.058 133.113 98.555C133.148 98.67 133.176 98.773 133.198 98.862C133.232 99.002 133.252 99.104 133.263 99.15C133.264 99.153 133.265 99.157 133.265 99.159C133.266 99.163 133.267 99.166 133.268 99.169C133.269 99.172 133.27 99.175 133.271 99.176C133.272 99.177 133.272 99.178 133.273 99.178C133.274 99.178 133.275 99.177 133.276 99.175C133.276 99.174 133.277 99.174 133.277 99.172C133.278 99.167 133.279 99.161 133.28 99.15C133.285 99.078 133.304 98.941 133.321 98.765C133.411 98.867 133.456 98.934 133.456 98.934C133.456 98.934 133.457 98.931 133.457 98.924C133.459 98.892 133.454 98.778 133.336 98.583C133.374 98.04 133.357 97.265 132.959 96.769C132.604 96.327 132.008 96.075 131.297 96.039C131.293 96.038 131.288 96.037 131.285 96.037C131.258 96.036 131.231 96.036 131.204 96.035C131.178 96.034 131.152 96.034 131.126 96.034C131.071 96.034 131.015 96.035 130.959 96.038C130.924 96.039 130.889 96.042 130.853 96.044C130.804 96.047 130.756 96.051 130.707 96.056C130.674 96.06 130.64 96.064 130.606 96.069C130.565 96.074 130.524 96.08 130.483 96.087C130.448 96.093 130.413 96.098 130.378 96.105C130.334 96.113 130.29 96.122 130.246 96.132C130.214 96.139 130.181 96.145 130.149 96.153C130.078 96.17 130.007 96.189 129.935 96.209C129.901 96.219 129.868 96.23 129.834 96.24C129.802 96.25 129.77 96.259 129.739 96.27C129.747 96.268 129.757 96.265 129.77 96.261C129.731 96.274 129.693 96.285 129.654 96.298C129.393 96.389 129.158 96.537 128.95 96.711C128.552 97.045 128.253 97.478 128.057 97.817C129.213 95.488 131.374 95.081 131.374 95.081C133.502 95.399 133.865 96.683 133.975 96.97C133.975 96.971 133.975 96.971 133.975 96.972C133.976 96.974 133.976 96.975 133.977 96.977C133.98 96.986 133.984 96.994 133.987 97C133.988 97.002 133.989 97.006 133.99 97.008C133.994 97.016 133.997 97.021 134.001 97.024C134.002 97.025 134.003 97.025 134.004 97.026C134.006 97.028 134.009 97.028 134.011 97.026C134.012 97.025 134.013 97.025 134.014 97.024C134.017 97.021 134.02 97.015 134.023 97.006C134.104 96.775 134.201 95.791 133.441 94.99ZM131.603 96.509C132.321 96.918 132.728 97.58 132.961 98.144C132.757 97.945 132.471 97.71 132.066 97.44C131.211 96.868 130.149 96.895 129.349 97.173C130.456 96.374 131.603 96.509 131.603 96.509ZM128.376 94.352C128.896 93.365 129.702 93.233 129.702 93.233C129.807 93.257 129.907 93.286 130.004 93.318C129.223 93.535 128.704 93.963 128.376 94.352ZM127.016 97.759C127.006 97.741 126.998 97.722 126.987 97.704C126.996 97.72 127.005 97.736 127.014 97.753L127.016 97.759ZM126.94 97.628C126.952 97.646 126.963 97.662 126.975 97.682C126.964 97.663 126.951 97.646 126.94 97.628ZM125.69 95.966C125.402 95.776 125.052 95.584 124.649 95.433C124.669 95.428 124.689 95.422 124.709 95.417C124.709 95.418 125.131 95.457 125.69 95.966Z" fill="#345968"/>
</g>
</g>
</g>
</g>
</g>
<defs>
<clipPath id="clip0_0_1">
<rect width="200" height="121.69" fill="white"/>
</clipPath>
</defs>
</svg>
