<svg width="200" height="122" viewBox="0 0 200 122" fill="none" xmlns="http://www.w3.org/2000/svg">
<!-- <rect width="200" height="122" fill="#1E1E1E"/> -->
<g id="26160971_4l50_68qb_211202 2" clip-path="url(#clip0_0_1)">
<g id="Group">
<g id="layer_4">
<g id="Clip path group">
<mask id="mask0_0_1" style="mask-type:luminance" maskUnits="userSpaceOnUse" x="0" y="0" width="200" height="122">
<g id="SVGID_00000077283932440843401680000014491191751515782315_">
<path id="Vector" d="M200 0H0V121.69H200V0Z" fill="white"/>
</g>
</mask>
<g mask="url(#mask0_0_1)">
<path id="Vector_2" d="M212.395 -13.521H-10.704V121.127H212.395V-13.521Z" fill="url(#paint0_linear_0_1)"/>
</g>
</g>
<g id="Clip path group_2">
<mask id="mask1_0_1" style="mask-type:luminance" maskUnits="userSpaceOnUse" x="0" y="0" width="200" height="122">
<g id="SVGID_00000077283932440843401680000014491191751515782315__2">
<path id="Vector_3" d="M200 0H0V121.69H200V0Z" fill="white"/>
</g>
</mask>
<g mask="url(#mask1_0_1)">
<g id="Group_2" opacity="0.1">
<path id="Vector_4" d="M-18.371 10.072C-2.798 7.607 12.949 6.249 28.714 6.011C39.685 5.845 50.945 6.279 61.096 10.442C68.772 13.59 75.891 18.872 84.177 19.288C95.441 19.854 105.629 11.223 116.895 11.731C125.323 12.111 132.892 17.581 141.32 17.946C151.4 18.382 160.235 11.556 169.99 8.977C185.045 4.997 200.981 11.376 216.47 9.771C217.766 17.087 217.814 24.623 216.613 31.956C207.157 30.055 197.671 28.305 188.154 26.739C180.4 25.463 172.401 24.316 164.747 26.096C159.76 27.256 154.989 29.646 149.869 29.705C143.498 29.779 137.725 26.265 131.689 24.227C123.912 21.602 115.326 21.436 107.453 23.758C101.546 25.5 95.813 28.633 89.665 28.273C80.354 27.728 73.286 19.447 64.256 17.112C53.983 14.456 43.604 19.852 33.658 23.547C19.453 28.824 4.029 30.783 -11.044 29.227C-12.778 29.048 -14.714 28.706 -15.721 27.283C-16.443 26.262 -16.499 24.93 -16.529 23.68C-16.637 19.131 -16.745 14.582 -16.853 10.033" fill="white"/>
</g>
</g>
</g>
<g id="Clip path group_3">
<mask id="mask2_0_1" style="mask-type:luminance" maskUnits="userSpaceOnUse" x="0" y="0" width="200" height="122">
<g id="SVGID_00000077283932440843401680000014491191751515782315__3">
<path id="Vector_5" d="M200 0H0V121.69H200V0Z" fill="white"/>
</g>
</mask>
<g mask="url(#mask2_0_1)">
<g id="Group_3" opacity="0.15">
<path id="Vector_6" d="M-27.884 40.455C-19.354 38.369 -9.994 37.612 -1.063 38.744C12.908 40.515 25.969 46.793 40.012 45.293C47.409 44.503 53.848 41.626 60.731 39.665C75.359 35.499 92.626 35.596 107.145 39.926C118.67 43.363 129.782 49.475 142.253 48.107C150.902 47.158 157.75 42.733 166.072 40.907C172.51 39.494 179.487 39.708 186.233 40.174C197.404 40.946 208.473 42.367 219.27 44.415C224.196 45.35 229.809 46.363 234.167 44.579C235.444 47.337 232.452 50.357 228.481 51.545C224.511 52.733 219.911 52.492 215.637 51.929C199.113 49.753 182.942 43.136 166.577 45.789C159.146 46.994 152.563 50.049 145.028 50.925C129.439 52.738 115.098 44.972 99.444 43.424C73.868 40.896 48.5 55.161 23.619 50.496C14.424 48.772 6.719 44.631 -2.101 42.196C-10.184 39.964 -19.185 39.212 -27.852 40.044" fill="white"/>
</g>
<g id="Clip path group_4">
<mask id="mask3_0_1" style="mask-type:luminance" maskUnits="userSpaceOnUse" x="0" y="0" width="200" height="122">
<g id="SVGID_00000077283932440843401680000014491191751515782315__4">
<path id="Vector_7" d="M200 0H0V121.69H200V0Z" fill="white"/>
</g>
</mask>
<g mask="url(#mask3_0_1)">
<path id="Vector_8" d="M-69.221 115.958C-67.599 115.322 -65.378 114.453 -62.46 113.245C-52.439 109.099 -43.854 96.873 -43.769 96.75C-42.386 94.996 -40.625 92.167 -38.396 88.586C-37.047 86.418 -35.515 83.959 -33.819 81.353C-33.912 81.204 -33.881 80.933 -33.703 80.71C-33.572 80.544 -33.325 80.292 -33.117 80.21C-33.094 80.176 -33.07 80.143 -33.047 80.109C-33.019 80.066 -32.98 80.05 -32.946 80.019C-32.732 79.695 -32.513 79.368 -32.294 79.041C-32.225 78.925 -32.148 78.813 -32.067 78.702C-31.573 77.965 -31.067 77.223 -30.549 76.473C-30.542 76.458 -30.541 76.446 -30.532 76.43C-30.47 76.321 -30.374 76.193 -30.266 76.062C-29.579 75.075 -28.867 74.08 -28.139 73.083C-28.18 73.022 -28.198 72.946 -28.158 72.845C-28.019 72.499 -27.837 72.207 -27.58 71.886C-27.439 71.71 -27.261 71.687 -27.161 71.753C-26.76 71.217 -26.352 70.682 -25.941 70.149C-25.98 70.045 -25.944 69.904 -25.784 69.76C-25.555 69.545 -25.352 69.32 -25.125 69.11C-22.208 65.412 -19.027 61.813 -15.601 58.652C-1.91901 46.033 12.517 45.687 12.661 45.685C13.687 45.607 14.735 45.567 15.765 45.567C27.964 45.567 39.567 51.054 50.252 61.876C51.353 62.99 52.41 64.163 53.434 65.296C56.2 68.361 59.06 71.53 63.072 73.909C68.704 77.249 75.798 78.266 82.658 79.248C88.933 80.147 95.423 81.077 100.844 83.774C108.75 87.709 113.639 93.595 118.369 99.288C122.206 103.906 126.172 108.683 131.734 112.402C132.2 112.715 132.738 113.032 133.306 113.367C134.68 114.177 136.099 115.014 136.901 115.99C137.096 116.226 137.293 116.533 137.109 116.819C136.717 117.425 134.757 117.757 129.071 118.445C126.336 118.775 122.94 118.943 118.977 118.943C115.754 118.943 113.033 118.828 111.93 118.773C111.969 118.814 111.995 118.861 111.999 118.913C112.009 119.07 111.814 119.209 111.402 119.338C111.149 119.418 110.748 119.457 110.178 119.457C109.089 119.457 107.617 119.31 106.7 119.205C106.753 119.243 106.806 119.288 106.857 119.337C106.969 119.444 106.935 119.534 106.905 119.579C106.7 119.885 105.24 119.939 104.798 119.949C96.7 120.416 88.353 120.653 79.991 120.653C54.623 120.653 33.088 118.4 24.824 117.153C25.021 117.369 25.208 117.728 24.993 118.225C24.927 118.375 24.711 118.451 24.352 118.451C22.657 118.451 17.593 116.799 16.866 116.558C16.337 116.868 13.058 118.744 11.398 118.646C10.944 118.619 10.647 118.5 10.513 118.291C10.289 117.938 10.625 117.426 10.87 117.125C9.769 117.38 6.57999 118.095 5.34699 118.095C5.23699 118.095 4.90299 118.095 4.84399 117.929C4.75699 117.684 5.607 117.254 6.423 116.905C3.987 117.237 -3.028 118.163 -5.411 118.163C-5.604 118.163 -5.76701 118.156 -5.89301 118.144C-6.27601 118.106 -6.79 118.027 -6.84 117.781C-6.872 117.623 -6.68301 117.466 -6.44301 117.331C-8.07301 117.586 -11.543 118.095 -13.301 118.095C-13.631 118.095 -13.879 118.076 -14.064 118.041C-14.388 117.977 -14.473 117.853 -14.489 117.761C-14.557 117.332 -13.047 116.611 -12.033 116.177C-22.231 117.711 -37.317 118.2 -40.803 118.2C-40.971 118.2 -41.109 118.198 -41.211 118.196C-41.743 118.184 -42.063 118.075 -42.161 117.873C-42.323 117.542 -41.786 117.062 -41.372 116.755C-42.605 117.007 -45.528 117.562 -46.456 117.443C-46.713 117.41 -46.791 117.316 -46.811 117.242C-46.893 116.952 -46.022 116.421 -45.233 116.008C-51.824 117.755 -63.116 119.049 -66.076 119.049C-66.13 119.049 -66.181 119.048 -66.228 119.047C-67.224 119.029 -67.696 118.924 -67.76 118.706C-67.8 118.57 -67.651 118.435 -67.457 118.322C-67.923 118.365 -68.582 118.409 -69.319 118.409C-70.276 118.409 -71.147 118.336 -71.906 118.192C-72.578 118.064 -72.925 117.964 -72.958 117.768C-73.009 117.442 -72.131 117.098 -69.221 115.958Z" fill="url(#paint1_linear_0_1)"/>
</g>
</g>
</g>
</g>
<g id="Clip path group_5">
<mask id="mask4_0_1" style="mask-type:luminance" maskUnits="userSpaceOnUse" x="0" y="0" width="200" height="122">
<g id="SVGID_00000077283932440843401680000014491191751515782315__5">
<path id="Vector_9" d="M200 0H0V121.69H200V0Z" fill="white"/>
</g>
</mask>
<g mask="url(#mask4_0_1)">
<path id="Vector_10" d="M12.188 104.408C13.81 103.773 16.031 102.903 18.949 101.695C28.97 97.55 37.555 85.324 37.64 85.201C39.023 83.447 40.784 80.618 43.013 77.037C44.362 74.87 45.894 72.41 47.589 69.804C47.496 69.656 47.527 69.384 47.705 69.161C47.836 68.995 48.083 68.743 48.291 68.661C48.314 68.627 48.338 68.594 48.361 68.56C48.389 68.517 48.428 68.501 48.462 68.47C48.676 68.146 48.895 67.819 49.114 67.492C49.183 67.376 49.26 67.264 49.341 67.153C49.835 66.416 50.341 65.674 50.859 64.924C50.866 64.909 50.867 64.897 50.876 64.881C50.939 64.772 51.034 64.644 51.141 64.513C51.828 63.526 52.54 62.531 53.268 61.534C53.227 61.473 53.209 61.397 53.249 61.296C53.388 60.95 53.57 60.658 53.827 60.337C53.968 60.161 54.146 60.138 54.246 60.204C54.647 59.668 55.055 59.133 55.466 58.6C55.427 58.496 55.464 58.355 55.623 58.211C55.853 57.996 56.055 57.771 56.282 57.561C59.199 53.863 62.38 50.264 65.806 47.103C79.488 34.484 93.924 34.138 94.068 34.136C95.094 34.057 96.142 34.018 97.172 34.018C109.371 34.018 120.974 39.505 131.66 50.327C132.761 51.441 133.818 52.614 134.842 53.747C137.608 56.812 140.468 59.981 144.48 62.36C150.112 65.7 157.206 66.717 164.066 67.699C170.341 68.598 176.831 69.528 182.252 72.225C190.157 76.16 195.047 82.046 199.777 87.739C203.614 92.357 207.58 97.134 213.142 100.852C213.608 101.165 214.146 101.482 214.714 101.817C216.088 102.627 217.506 103.464 218.309 104.44C218.504 104.676 218.701 104.983 218.517 105.269C218.125 105.875 216.165 106.207 210.478 106.895C207.743 107.225 204.347 107.393 200.384 107.393C197.161 107.393 194.44 107.278 193.337 107.223C193.376 107.264 193.402 107.311 193.406 107.363C193.416 107.52 193.221 107.659 192.809 107.788C192.556 107.868 192.155 107.907 191.585 107.907C190.496 107.907 189.024 107.76 188.107 107.655C188.16 107.693 188.213 107.738 188.264 107.787C188.376 107.894 188.342 107.984 188.312 108.029C188.107 108.335 186.647 108.389 186.205 108.399C178.107 108.866 169.76 109.103 161.398 109.103C136.03 109.103 114.495 106.85 106.231 105.603C106.428 105.819 106.615 106.178 106.4 106.675C106.334 106.825 106.118 106.901 105.759 106.901C104.064 106.901 99 105.249 98.273 105.008C97.744 105.318 94.465 107.194 92.805 107.096C92.351 107.069 92.053 106.95 91.92 106.741C91.696 106.388 92.032 105.876 92.277 105.575C91.176 105.83 87.987 106.545 86.754 106.545C86.643 106.545 86.31 106.545 86.251 106.379C86.164 106.134 87.014 105.704 87.83 105.355C85.393 105.687 78.379 106.613 75.996 106.613C75.803 106.613 75.64 106.606 75.514 106.594C75.131 106.556 74.617 106.477 74.567 106.231C74.535 106.073 74.724 105.916 74.964 105.782C73.334 106.037 69.864 106.546 68.106 106.546C67.776 106.546 67.527 106.527 67.343 106.492C67.019 106.428 66.933 106.304 66.918 106.212C66.85 105.783 68.36 105.062 69.374 104.628C59.176 106.162 44.09 106.651 40.604 106.651C40.436 106.651 40.298 106.649 40.196 106.647C39.664 106.635 39.344 106.526 39.246 106.324C39.084 105.993 39.621 105.513 40.035 105.206C38.802 105.458 35.879 106.013 34.951 105.894C34.694 105.861 34.616 105.767 34.596 105.693C34.514 105.403 35.385 104.872 36.174 104.459C29.583 106.206 18.291 107.5 15.331 107.5C15.277 107.5 15.226 107.499 15.179 107.499C14.183 107.481 13.711 107.376 13.647 107.158C13.607 107.022 13.756 106.887 13.95 106.774C13.484 106.817 12.825 106.861 12.088 106.861C11.131 106.861 10.26 106.788 9.501 106.644C8.829 106.516 8.482 106.416 8.449 106.22C8.399 105.893 9.278 105.548 12.188 104.408Z" fill="url(#paint2_linear_0_1)"/>
</g>
</g>
</g>
</g>
</g>
<defs>
<linearGradient id="paint0_linear_0_1" x1="100.845" y1="121.127" x2="100.845" y2="-13.5211" gradientUnits="userSpaceOnUse">
<stop stop-color="white"/>
<stop offset="1" stop-color="#6C909E"/>
</linearGradient>
<linearGradient id="paint1_linear_0_1" x1="32.1127" y1="120.651" x2="32.1127" y2="45.565" gradientUnits="userSpaceOnUse">
<stop stop-color="white"/>
<stop offset="0.0442" stop-color="#F1F5F6"/>
<stop offset="0.1914" stop-color="#C9D6DB"/>
<stop offset="0.3428" stop-color="#A7BDC5"/>
<stop offset="0.497" stop-color="#8DA9B4"/>
<stop offset="0.655" stop-color="#7B9BA8"/>
<stop offset="0.8194" stop-color="#7093A0"/>
<stop offset="1" stop-color="#6C909E"/>
</linearGradient>
<linearGradient id="paint2_linear_0_1" x1="113.521" y1="109.101" x2="113.521" y2="34.0157" gradientUnits="userSpaceOnUse">
<stop stop-color="white"/>
<stop offset="0.0442" stop-color="#F1F5F6"/>
<stop offset="0.1914" stop-color="#C9D6DB"/>
<stop offset="0.3428" stop-color="#A7BDC5"/>
<stop offset="0.497" stop-color="#8DA9B4"/>
<stop offset="0.655" stop-color="#7B9BA8"/>
<stop offset="0.8194" stop-color="#7093A0"/>
<stop offset="1" stop-color="#6C909E"/>
</linearGradient>
<clipPath id="clip0_0_1">
<rect width="200" height="121.69" fill="white"/>
</clipPath>
</defs>
</svg>
