<svg width="750" height="348" viewBox="0 0 750 348" fill="none" xmlns="http://www.w3.org/2000/svg">
<path id="layer_5" d="M362.034 183.034C362.83 182.848 363.667 182.444 364.52 182.185C365.59 181.859 366.901 180.919 367.949 180.346C370.516 178.944 373.115 177.436 375.817 176.348C378.134 175.416 379.989 173.915 382.105 172.646C386.595 169.955 390.733 165.858 394.649 162.332C399.509 157.957 405.342 154.605 410.163 150.186C412.021 148.482 413.744 146.621 415.964 145.665C417.008 145.216 418.421 144.692 419.48 144.8C420.659 144.92 421.976 145.57 423.149 145.829C425.536 146.356 427.863 146.411 430.332 146.337C433.752 146.235 435.597 142.203 437.369 139.617C439.34 136.741 443.392 138.655 446.382 139.081C449.096 139.468 451.425 139.61 453.846 140.837C455.473 141.661 456.608 142.605 458.014 143.697C459.5 144.851 461.572 146.716 463.56 146.691C464.289 146.682 464.969 146.279 465.689 146.191C467.009 146.03 468.358 146.302 469.69 146.22C472.518 146.045 475.29 145.227 477.951 144.292C480.758 143.306 482.804 141.725 485.177 140.014C489.133 137.162 493.196 135.055 497.033 131.972C500.004 129.585 503.426 127.555 506.021 124.75C508.519 122.049 511.707 119.955 513.702 116.82C518.958 108.56 527.71 102.706 534.777 95.994C538.407 92.547 541.553 88.613 545.045 85.037C547.432 82.593 550.096 80.439 552.42 77.952C555.2 74.977 558.254 72.1 561.402 69.478C563.324 67.877 564.964 67.388 567.027 66.049C569.169 64.66 571.148 62.562 573.244 60.997C577.477 57.838 580.271 53.659 584.047 50.173C585.731 48.619 587.763 47.992 589.25 46.267C591.487 43.673 593.629 41.022 595.997 38.487C599.281 34.971 603.32 31.799 606.273 28.049C609.878 23.47 613.211 18.958 616.198 14.02C618.992 9.40098 622.139 4.47698 625.246 0.0999756C627.266 0.442976 630.264 5.09198 631.528 6.50898C632.129 7.18198 632.547 8.18698 633.193 8.77798C634.087 9.59698 635.089 9.59098 635.914 10.582C637.176 12.099 637.857 14.375 639.195 15.794C641.511 18.25 644.105 14.614 645.976 13.045C648.148 11.224 650.237 9.30798 652.414 7.48898C653.319 6.73298 654.023 5.82698 655.019 5.17098C655.815 4.64598 656.611 5.16498 657.274 4.17098C663.453 6.59798 665.34 12.573 669.948 16.997C673.527 20.432 676.872 23.034 679.448 27.354C682.179 31.934 684.76 36.601 687.393 41.237C688.842 43.789 690.218 46.437 691.84 48.885C691.829 48.869 692.834 49.619 692.811 49.565C693.56 51.289 693.716 53.932 694.175 55.854C695.499 61.399 698.142 67.523 700.73 72.555C702.619 76.228 704.436 80.575 706.949 83.849C708.684 86.109 711.164 87.687 712.849 89.99C715.181 93.177 716.34 97.015 719 100.045C721.115 102.455 723.72 104.184 725.274 107.016C726.702 109.62 727.7 109.313 730.032 107.258C731.793 105.707 733.273 103.695 734.977 101.996C736.141 100.836 738.562 97.213 740.094 97.056C743.065 96.752 742.474 99.366 743.049 101.563C744.287 106.296 747.935 111.444 750.428 115.624C755.771 124.581 761.159 133.539 765.499 143.04C771.908 157.071 775.19 172.461 780.901 186.786C783.457 193.197 786.471 200.115 790.65 205.686C794.78 211.192 800.23 215.572 804.582 220.924C809.939 227.513 815.966 235.801 822.971 240.87C825.464 242.674 828.533 243.487 831.08 245.219C833.781 247.056 836.346 249.273 838.877 251.336C841.821 253.736 844.275 256.503 847.028 259.101C849.092 261.05 851.658 262.145 853.825 263.942C856.947 266.532 861.16 271.536 859.861 275.891C856.631 276.622 852.462 276.31 849.128 276.727C840.93 277.752 832.999 278.595 825.036 280.975C808.389 285.95 792.828 293.804 777.213 301.298C750.947 313.905 724.225 326.015 696.123 333.918C666.981 342.113 637.489 346.438 607.299 347.597C578.263 348.711 549.297 346.28 520.329 344.546C497.169 343.159 474.597 340.242 452.025 334.784C451.33 334.616 450.634 334.449 449.939 334.282C439.77 331.842 429.567 329.502 419.56 326.448C415.244 325.131 411.065 323.876 407.223 321.502C402.978 318.878 398.72 320.448 394.148 319.513C393.18 319.315 391.684 318.658 390.679 318.161C389.139 317.398 387.483 317.029 385.849 316.511C383.231 315.681 380.733 314.765 378.044 314.159C376.142 313.73 374.224 313.497 372.366 312.866C370.406 312.2 368.821 311.309 366.767 311.026C363.633 310.594 360.743 309.722 357.691 308.834C354.189 307.815 350.741 307.511 347.167 306.813C339.861 305.386 332.04 306.539 324.621 305.826C318.054 305.195 311.248 304.518 304.663 304.342C296.082 304.112 287.953 302.411 279.543 300.863C270.072 299.119 260.709 297.159 251.099 296.297C245.672 295.81 240.254 295.4 234.83 294.85C215.506 292.89 196.309 291.637 176.9 290.845C161.381 290.212 146.001 288.489 130.57 286.797C117.163 285.328 103.746 284.811 90.3611 283.172C85.0021 282.516 79.612 282.118 74.326 280.987C69.649 279.986 65.1421 278.449 60.5291 277.198C47.4421 273.65 34.173 270.692 21.633 265.375C10.219 260.535 -1.58695 254.034 -10.2529 245.105C-16.8819 238.276 -19.8949 230.363 -21.3349 221.079C-23.2099 208.995 -21.845 196.376 -20.679 184.284C-20.235 179.677 -19.967 174.928 -19.033 170.381C-18.617 168.358 -18.1109 166.171 -16.6879 164.569C-14.7789 162.421 -10.7049 161.317 -8.27495 160.082C-4.88895 158.361 -1.57095 156.46 1.73705 154.592C7.86805 151.13 14.0271 147.716 20.1441 144.23C24.5801 141.702 28.347 138.511 32.5 135.591C35.091 133.769 37.754 132.376 40.493 130.839C46.144 127.667 51.4471 123.92 56.8371 120.336C59.3091 118.693 61.6561 117.055 63.9731 115.216C64.7091 114.632 65.6391 113.876 66.5271 113.473C67.4831 113.039 67.4721 112.847 68.3921 113.691C69.5771 114.779 70.3841 116.286 71.4671 117.477C72.9951 119.158 74.6261 120.426 76.5021 121.66C78.3161 122.853 80.0841 124.304 82.0821 125.159C84.5911 126.234 87.2581 126.447 89.8651 127.144C91.5431 127.593 93.3101 128.314 94.8901 129.007C96.4221 129.678 95.5681 129.191 96.8171 128.443C98.5921 127.38 100.68 130.267 101.939 130.987C105.568 133.065 108.474 135.741 111.851 138.199C118.675 143.166 125.473 148.187 132.649 152.668C136.846 155.289 141.143 157.991 145.48 160.376C149.255 162.452 153.4 162.93 157.367 164.429C161.308 165.918 163.775 169.372 168.119 169.939C172.222 170.474 176.23 169.319 180.373 170.015C186.044 170.967 191.352 172.609 196.815 174.311C202.235 175.999 206.807 178.11 212.57 178.058C219.806 177.994 226.909 176.913 234.101 178.366C242.804 180.124 251.07 183.695 259.731 185.677C277.997 189.856 296.472 193.697 315.284 190.724C320.708 189.867 327.136 188.035 331.809 184.994C334.207 183.434 336.039 180.985 338.529 179.6C341.411 177.997 345.029 179.876 348.015 180.491C349.572 180.812 351.348 180.675 352.847 181.108C353.904 181.413 355.2 182.304 356.146 182.809C356.715 183.113 357.305 183.785 358.035 183.727C358.622 183.681 358.559 183.127 359.055 183.05C359.997 182.909 361.111 183.251 362.034 183.034Z" fill="url(#paint0_linear_3_411)"/>
<defs>
<linearGradient id="paint0_linear_3_411" x1="418.921" y1="205.433" x2="418.921" y2="67.2774" gradientUnits="userSpaceOnUse">
<stop stop-color="#5D6783"/>
<stop offset="1" stop-color="#6A6C84"/>
</linearGradient>
</defs>
</svg>
