<svg width="563" height="211" viewBox="0 0 563 211" fill="none" xmlns="http://www.w3.org/2000/svg">
<g id="layer_6">
<path id="Vector" d="M-10.333 91.608C-9.295 91.141 -8.224 90.799 -7.19 90.267C-6.033 89.673 -5.139 88.714 -3.953 88.13C-0.701005 86.529 3.01999 86.482 6.47599 85.579C11.047 84.386 15.578 84.766 20.133 83.827C23.042 83.227 25.306 81.461 27.598 79.701C30.703 77.317 34.235 75.486 37.228 72.978C39.653 70.946 41.452 69.285 44.701 68.989C47.623 68.723 50.663 67.465 52.849 65.531C55.067 63.57 57.595 61.204 60.357 60.084C63.414 58.845 65.913 58.947 68.72 56.964C72.705 54.148 76.447 51.381 80.664 48.889C83.482 47.224 85.856 45.111 88.832 43.687C91.782 42.275 94.485 40.106 97.267 38.368C100.765 36.183 104.219 34.211 107.479 31.667C113.713 26.803 120.856 22.812 127.553 18.642C130.643 16.718 133.534 14.429 136.88 12.937C140.03 11.533 143.049 11.314 145.838 9.045C148.081 7.22 150.346 5.43401 152.6 3.62101C153.661 2.76701 154.989 0.486007 156.698 0.954007C157.35 1.13301 157.908 1.82301 158.378 2.28601C160.429 4.30801 162.447 6.438 164.488 8.5C167.104 11.142 169.919 13.907 173.302 15.55C176.086 16.902 179.125 17.866 182.016 18.971C186.184 20.563 188.84 23.465 192.097 26.316C195.709 29.479 199.841 32.141 203.694 34.999C206.848 37.339 209.286 39.8 211.497 42.994C213.321 45.63 215.08 47.539 217.965 48.975C220.027 50.001 221.814 51.426 224.013 52.167C227.098 53.208 228.526 55.722 231.204 57.397C234.407 59.401 237.957 57.841 241.383 57.631C242.703 57.55 244.196 57.945 245.481 57.567C246.781 57.185 248.876 55.51 249.849 54.534C251.592 52.785 251.983 50.836 254.471 52.464C256.217 53.606 257.395 53.953 259.453 54.465C262.948 55.335 266.036 56.756 269.661 57.331C272.927 57.849 276.119 58.666 279.383 59.197C282.48 59.701 285.637 59.223 288.683 59.766C290.948 60.17 293.481 61.22 295.382 62.51C298.569 64.673 299.872 63.671 303.382 62.8C305.284 62.329 306.169 62.611 308.058 62.944C309.966 63.28 311.996 63.213 313.95 63.519C315.221 63.718 316.281 63.597 317.521 63.646C319.268 63.716 320.885 64.284 322.635 64.366C325.769 64.512 329.128 64.576 332.247 64.183C339.558 63.261 347.013 63.665 354.381 63.665C357.287 63.665 360.33 63.925 363.23 63.684C364.947 63.541 366.518 62.983 368.007 64.034C369.018 64.747 370.379 66.716 371.272 67.635C373.783 70.22 377.043 72.193 379.949 74.316C382.813 76.408 385.805 78.613 388.978 80.212C392.676 82.076 396.922 83.544 400.81 85.031C405.592 86.859 409.765 86.251 414.566 85.166C416.151 84.808 417.073 84.353 418.667 84.334C419.763 84.321 420.859 84.332 421.955 84.332C426.65 84.332 431.656 83.851 436.284 84.634C438.603 85.026 440.784 86.427 443.15 86.414C447.021 86.393 450.959 84.519 454.407 83.069C456.623 82.137 458.919 81.633 461.177 80.84C462.863 80.248 464.508 79.413 466.228 78.93C467.933 78.451 469.693 78.426 471.386 77.937C472.752 77.542 473.986 76.845 475.364 76.476C477.783 75.829 479.461 74.628 481.64 73.414C483.465 72.398 486.968 69.57 489.229 70.457C490.472 70.945 491.638 72.735 492.675 73.605C498.629 78.601 506.924 81.214 514.052 83.764C524.584 87.531 535.91 90.052 545.744 95.499C551.036 98.43 555.087 101.603 557.084 107.336C559.11 113.151 562.735 119.377 562.641 125.68C562.587 129.333 561.146 132.683 559.633 135.922C555.572 144.62 548.164 151.916 541.286 158.443C530.801 168.395 517.334 177.194 503.691 182.08C486.191 188.347 467.735 191.317 449.2 192.105C434.382 192.735 419.515 192.449 404.695 193.012C378.661 194 352.785 196.761 326.908 199.617C236.773 209.565 145.357 216.366 55.192 202.963C44.919 201.436 34.589 199.645 24.586 196.757C11.415 192.954 -1.79901 186.253 -12.713 177.972C-18.644 173.471 -23.961 168.156 -26.782 161.064C-29.543 154.12 -30.59 146.783 -30.467 139.322C-30.334 131.246 -29.951 122.793 -28.417 114.847C-27.437 109.771 -23.965 105.495 -20.219 102.185C-18.816 100.946 -17.361 99.766 -15.981 98.5C-15.415 97.981 -13.971 96.984 -13.71 96.173C-13.555 95.693 -13.867 95.302 -13.783 94.865C-13.56 93.693 -12.825 93.083 -11.838 92.421C-11.348 92.097 -10.844 91.837 -10.333 91.608Z" fill="url(#paint0_linear_3_451)"/>
<path id="Vector_2" d="M425.134 114.746C424.77 114.575 424.387 114.432 423.985 114.321C421.716 113.696 418.362 114.45 415.983 114.381C410.981 114.236 406.69 110.896 401.915 109.651C398.441 108.745 394.836 108.346 391.41 107.283C388.755 106.459 386.257 105.18 383.823 103.849C379.765 101.631 376.25 98.376 371.351 99.133C369.214 99.463 367.143 100.09 365.021 99.35C362.863 98.597 362.335 96.954 361.185 95.098C359.094 91.725 354.22 92.335 350.7 92.338C346.634 92.341 342.711 93.048 338.67 93C337.347 92.984 335.934 92.838 334.631 93.12C332.772 93.522 331.01 94.831 329.396 95.787C324.692 98.574 320.122 101.622 315.483 104.498C311.834 106.76 308.347 109.87 304.491 111.728C302.36 112.755 300.116 112.08 297.868 112.482C295.473 112.911 292.946 112.738 290.803 113.852C289.561 114.498 288.768 115.236 287.199 115.045C284.326 114.695 282.224 111.965 279.414 111.135C274.284 109.62 268.437 111.644 263.499 109.828C260.624 108.771 258.301 106.64 255.886 104.832C252.426 102.242 248.655 100.13 244.487 98.939C240.945 97.927 237.235 97.525 233.786 96.198C230.616 94.978 227.619 93.407 224.636 91.802C222.04 90.405 219.34 89.991 216.666 88.871C215.65 88.445 214.721 87.83 213.699 87.404C211.861 86.638 209.908 86.305 208.049 85.584C201.376 82.996 196.249 78.055 190.363 74.227C188.082 72.744 186.294 71.094 184.633 68.971C183.778 67.878 182.753 66.137 181.468 65.725C181.097 69.533 176.388 72.693 173.331 74.218C167.154 77.299 160.819 80.103 154.53 82.951C146.393 86.637 138.688 92.02 129.657 93.343C125.583 93.94 122.526 93.488 118.585 92.749C113.575 91.81 108.514 91.487 103.45 92.133C99.869 92.59 96.353 93.173 92.742 92.746C88.594 92.255 84.868 90.668 80.802 89.986C76.914 89.334 72.921 89.893 69.071 90.604C66.466 91.085 63.869 91.834 61.306 92.512C58.476 93.26 54.573 94.835 51.509 94.311C49.302 93.934 47.826 92.358 45.925 91.359C43.978 90.336 42.108 90.21 39.946 90.286C36.047 90.424 32.253 91.359 28.329 90.975C23.334 90.486 18.361 86.665 14.646 83.639C6.23602 76.79 -2.99998 72.61 -13.14 69.111C-15.108 68.432 -18.258 66.617 -20.185 68.273C-21.306 69.236 -22.637 74.338 -22.684 74.493C-24.879 81.64 -26.777 88.885 -28.886 96.059C-32.102 106.996 -35.466 117.94 -38.063 129.048C-39.66 135.88 -41.259 143.59 -36.032 149.365C-33.767 151.867 -30.253 153.377 -27.21 154.41C-22.61 155.972 -17.652 157.179 -12.962 158.283C3.27902 162.106 19.649 165.515 36.112 168.224C55.849 171.471 75.652 174.632 95.437 177.568C116.02 180.623 137.102 183.227 157.895 184.311C200.985 186.556 244.368 183.93 287.255 179.686C314.047 177.035 340.621 172.604 367.633 173.805C374.183 174.096 380.714 174.667 387.26 175.017C394.782 175.42 401 173.118 407.3 169.072C412.774 165.556 417.383 160.857 420.978 155.444C423.441 151.735 424.879 147.735 426.499 143.626C427.486 141.124 429.216 138.787 429.867 136.191C430.583 133.337 431.428 130.592 431.364 127.622C431.268 123.271 429.616 116.853 425.134 114.746Z" fill="url(#paint1_linear_3_451)"/>
</g>
<defs>
<linearGradient id="paint0_linear_3_451" x1="266.085" y1="-16" x2="266.085" y2="163.07" gradientUnits="userSpaceOnUse">
<stop stop-color="#5D6783"/>
<stop offset="1" stop-color="#F5BA9D"/>
</linearGradient>
<linearGradient id="paint1_linear_3_451" x1="195.878" y1="65.7246" x2="195.878" y2="125.062" gradientUnits="userSpaceOnUse">
<stop stop-color="#5D6783"/>
<stop offset="1" stop-color="#F5BA9D"/>
</linearGradient>
</defs>
</svg>
