<svg width="750" height="249" viewBox="0 0 750 249" fill="none" xmlns="http://www.w3.org/2000/svg">
<g id="layer_3">
<path id="Vector" d="M183.394 104.227C183.807 104.112 184.228 104.019 184.664 103.968C186.214 103.789 187.208 104.076 188.516 103.411C187.968 103.69 183.973 104.683 184.38 103.028C184.542 102.371 189.206 102.194 189.977 102.232C190.897 102.277 191.782 102.579 192.704 102.603C196.228 102.698 200.027 100.906 203.297 99.837C208.598 98.104 213.91 96.288 219.444 95.456C224.852 94.642 230.222 94.378 235.628 93.514C239.762 92.854 244.418 91.54 247.998 89.203C248.977 88.564 249.595 87.665 250.667 87.138C251.657 86.651 252.433 86.98 253.366 86.702C254.12 86.477 254.174 85.791 254.798 85.469C255.874 84.914 256.436 85.665 257.315 86.019C260.429 87.274 264.862 84.212 268.034 83.025C270.935 81.939 273.556 80.593 276.535 79.839C277.622 79.564 278.074 79.209 279.184 79.487C280.042 79.702 280.425 80.481 281.062 80.969C282.77 82.276 285.059 82.905 287.078 83.672C289.414 84.56 291.379 85.341 293.893 85.364C297.86 85.399 300.949 85.155 304.679 83.69C307.385 82.627 310.132 81.77 312.831 80.669C315.069 79.756 317.815 78.345 320.262 78.029C321.135 77.916 322.123 77.957 323.008 77.996C324.566 78.065 324.191 78.223 325.287 79.158C326.529 80.217 328.098 81.138 329.457 82.092C332.26 84.059 334.217 87.025 336.769 89.306C344.102 95.86 350.55 103.241 357.646 110.048C362.077 114.298 367.897 117.451 373.182 120.517C374.963 121.55 376.832 122.405 378.668 123.334C380.872 124.45 383.093 125.009 385.335 125.953C387.324 126.791 388.803 128.346 390.668 129.373C392.514 130.39 394.159 131.334 395.866 132.556C397.053 133.406 398.363 133.709 399.517 134.652C401.015 135.876 402.378 136.416 403.969 137.453C405.71 138.588 407.543 139.6 408.681 141.348C409.571 142.715 410.33 143.488 412.017 143.361C413.489 143.25 413.575 142.751 414.803 141.98C416.497 140.917 418.464 140.143 420.221 139.092C422.546 137.701 425.172 136.724 427.383 135.158C428.834 134.13 430.083 133.183 431.866 132.808C434.206 132.316 435.595 133.382 437.639 134.332C441.411 136.084 445.148 137.837 448.913 139.606C454.265 142.12 460.577 142.706 465.34 146.311C467.211 147.727 468.971 149.682 471.381 150.04C474.033 150.434 477.364 149.061 479.952 148.652C482.336 148.276 485.312 147.368 487.722 147.444C489.643 147.505 491.329 148.168 493.319 148.035C498.841 147.668 504.539 145.846 509.779 144.212C521.356 140.601 533.086 135.385 543.229 128.672C546.502 126.505 549.49 124.016 552.861 121.99C555.452 120.433 557.886 118.738 560.063 116.622C560.942 115.767 562.695 113.585 564.049 113.424C565.286 113.276 565.318 113.817 566.272 114.489C568.376 115.971 571.411 116.64 573.806 117.273C580.937 119.156 588.022 121.527 595.06 123.727C609.433 128.219 623.799 133.009 637.796 138.551C642.703 140.494 648.62 144.041 654.119 143.215C662.241 141.996 669.729 138.672 677.378 135.808C679.969 134.838 682.312 133.917 685.093 134.009C687.29 134.081 687.924 133.318 689.571 131.927C696.047 126.459 702.068 121.169 709.696 117.334C721.932 111.182 731.659 100.814 742.066 92.168C751.735 84.135 762.339 77.282 772.652 70.137C775.121 68.427 777.579 66.725 779.922 64.843C781.401 63.655 782.909 61.899 784.691 61.238C784.617 62.726 784.012 64.343 783.818 65.806C783.33 69.477 783.309 73.118 783.321 76.819C783.357 87.698 783.336 98.54 782.852 109.411C782.485 117.661 782.019 125.909 781.984 134.169C781.954 141.065 782.062 147.827 781.405 154.704C780.999 158.955 780.74 163.195 778.887 167.101C777.224 170.607 774.852 173.158 771.706 175.365C768.532 177.137 765.214 178.568 761.753 179.659C756.588 181.616 751.334 183.309 745.992 184.738C730.511 189.324 714.823 193.438 699.061 196.933C660.605 205.459 622.027 213.047 583.045 218.72C529.254 226.548 475.137 232.292 420.729 230.829C377.379 229.664 334.223 227.642 291.584 219.152C275.922 216.034 260.408 212.225 245.05 207.841C234.839 205.033 224.863 201.571 215.12 197.455C206.187 194.288 197.602 190.343 189.367 185.619C176.9 177.126 165.062 165.755 159.304 151.574C155.909 143.214 154.452 133.414 157.878 124.779C160.207 118.909 163.259 113.581 167.949 109.33C171.385 106.215 174.54 105.482 178.986 105.359C180.579 105.314 181.936 104.634 183.394 104.227Z" fill="url(#paint0_linear_3_449)"/>
<path id="Vector_2" d="M-12.722 64.244C-11.772 63.34 -10.836 62.415 -9.905 61.463C-9.779 61.536 -9.58001 61.669 -9.43901 61.721C-8.69101 61.246 -8.008 60.676 -7.339 60.092C-2.78 56.115 0.967001 51.127 5.748 47.423C8.732 45.112 11.802 42.514 14.871 40.352C15.76 39.726 16.901 39.051 17.996 38.934C20.45 38.671 22.321 40.795 24.499 41.538C26.652 42.271 28.941 42.326 31.011 41.293C36.59 38.509 41.984 34.465 46.83 30.555C55.591 23.486 64.355 16.484 72.196 8.36099C74.495 5.97899 77.371 1.101 80.747 0.102997C88.099 10.733 99.032 18.244 108.909 26.685C120.08 36.233 133.063 43.528 144.052 53.228C154.994 62.887 166.824 71.411 177.413 81.484C188.563 92.091 199.199 102.779 211.315 112.314C220.126 119.248 229.632 128.023 240.763 131.143C243.936 132.032 247.028 132.024 250.269 132.04C250.813 132.043 251.357 132.034 251.9 132.01C252.363 131.989 252.849 131.902 253.311 131.944C253.628 131.973 253.915 132.093 254.238 132.058C254.484 132.031 254.715 131.933 254.959 131.898C255.189 131.865 255.423 131.896 255.651 131.855C255.883 131.813 256.066 131.715 256.279 131.63C256.747 131.442 257.196 131.278 257.62 131.036C257.983 130.828 258.387 130.726 258.755 130.54C259.145 130.342 259.506 130.1 259.905 129.908C260.059 129.834 260.242 129.783 260.405 129.724C260.678 129.624 260.775 129.543 260.999 129.377C261.862 128.736 262.666 128.06 263.609 127.512C264.505 126.992 265.492 126.692 266.369 126.133C266.826 125.841 267.206 125.483 267.63 125.15C267.98 124.875 268.355 124.701 268.751 124.507C269.042 124.364 269.273 124.256 269.473 124.004C269.574 123.877 269.567 123.809 269.718 123.721C270.145 123.472 270.68 124.226 270.956 124.524C273.45 127.218 276.24 129.57 279.08 131.891C279.609 132.324 280.081 132.773 280.54 133.274C281.009 133.785 281.63 134.117 282.151 134.567C282.748 135.083 283.403 135.511 284.057 135.954C285.954 137.237 287.898 138.448 289.877 139.6C293.857 141.918 297.973 143.996 302.144 145.947C310.4 149.81 318.877 153.174 327.161 156.975C343.623 164.527 360.477 170.282 378.035 174.636C385.259 176.428 391.879 178.377 399.336 179.1C409.017 180.038 418.989 179.325 428.687 178.829C439.441 178.279 450.328 176.42 460.956 174.777C474.008 172.759 486.821 170.63 499.682 167.631C519.927 162.911 540.455 159.67 560.741 155.184C566.586 153.892 572.513 153.653 578.412 152.712C582.181 152.111 585.336 152.288 589.031 153.095C591.219 153.573 593.344 154.683 595.414 155.593C598.972 157.157 602.519 158.638 606.173 160.006C610.743 161.717 615.718 163.223 620.433 164.411C624.339 165.395 626.884 166.836 630.57 168.334C631.639 168.768 641.845 170.234 639.867 172.836C639.794 172.932 635.862 173.836 635.387 174.039C630.184 176.261 624.742 177.924 619.479 180.003C586.857 192.887 552.564 202.305 518.708 211.281C489.953 218.905 460.789 224.296 431.571 229.793C404.396 234.906 377.141 240.363 349.72 243.97C323.029 247.481 296.33 248.147 269.441 248.068C239.003 247.978 208.843 247.465 178.448 245.506C159.733 244.3 141.257 242.886 122.485 242.96C107.915 243.017 93.344 242.936 78.774 243.061C70.634 243.131 62.486 242.681 54.41 241.647C47.862 240.809 41.145 239.94 35.157 237.011C30.557 234.761 26.705 233.171 21.465 233.015C18.097 232.915 15.516 231.8 12.265 231.228C8.984 230.651 5.60299 231.004 2.29399 231.006C-1.67001 231.007 -5.28501 231.089 -9.17601 231.783C-14.917 232.808 -21.27 231.978 -27.083 232.002C-41.392 232.062 -55.275 228.449 -68.943 224.47C-77.658 221.933 -86.653 221.468 -95.503 219.44C-105.813 217.077 -115.727 213.097 -126.027 210.619C-130.236 209.606 -134.449 208.748 -138.514 207.232C-140.43 206.517 -144.156 205.59 -145.708 204.009C-148.304 201.365 -143.572 198.517 -141.921 196.651C-135.731 189.653 -128.087 184.013 -121.969 176.913C-112.684 166.136 -106.788 152.342 -100.128 139.886C-93.064 126.675 -83.905 114.824 -77.875 101.081C-76.559 98.081 -75.306 95.356 -74.934 92.076C-74.814 91.018 -75.313 90.187 -74.296 89.363C-73 90.106 -72.009 91.243 -70.696 91.979C-67.182 93.951 -62.711 94.958 -58.731 95.073C-51.819 95.273 -46.573 94.331 -41.059 89.983C-33.158 83.753 -26.713 76.017 -18.884 69.663C-16.724 67.906 -14.694 66.12 -12.722 64.244Z" fill="url(#paint1_linear_3_449)"/>
<path id="Vector_3" d="M-11.66 115.901C-9.81798 114.214 -6.87798 113.6 -4.55298 112.921C-1.44398 112.013 1.36002 110.411 4.37802 109.278C7.96602 107.93 11.574 106.953 14.94 105.061C17.866 103.416 20.961 102.189 23.981 100.738C26.452 99.551 28.832 98.085 31.465 97.287C32.329 97.025 33.543 96.473 34.447 96.552C34.554 98.074 35.035 98.643 35.953 99.804C38.539 103.076 40.592 106.464 43.956 109.012C48.233 112.251 52.987 114.807 57.528 117.652C61.143 119.917 64.933 121.761 68.923 123.277C71.059 124.089 72.795 125.092 75.098 125.011C77.506 124.926 80.044 124.376 82.412 123.862C83.445 123.638 85.843 122.686 86.887 123.104C87.682 123.422 88.811 124.901 89.454 125.465C94.313 129.729 100.558 132.885 106.648 135.025C112.625 137.125 119.723 136.726 125.959 136.527C133.879 136.273 141.564 133.892 149.425 133.514C150.635 133.456 151.813 133.091 152.997 132.864C154.333 132.608 155.652 132.673 156.965 132.453C158.579 132.184 160.251 131.659 161.912 132.076C162.015 134.039 165.055 136.666 166.431 137.731C168.787 139.553 171.319 141.175 173.767 142.869C176.526 144.779 178.969 147.109 181.401 149.413C185.649 153.436 191.035 156.272 196.62 158.047C199.135 158.846 201.494 158.783 204.06 159.124C206.088 159.394 208.128 159.778 210.167 159.957C211.321 160.058 212.488 160.094 213.632 159.89C214.598 159.718 215.501 159.301 216.518 159.493C217.683 159.713 216.942 159.614 217.586 160.38C218.158 161.06 219.511 161.837 220.247 162.247C222.016 163.233 224.186 164.029 226.078 164.728C229.017 165.814 231.858 167.199 234.678 168.563C241.096 171.669 248.06 174.071 255.075 175.512C261.904 176.915 268.5 177.73 275.476 177.48C279.323 177.342 283.261 176.569 287.013 175.726C290.739 174.889 294.212 173.27 297.955 172.457C300.31 171.945 302.494 171.972 304.744 172.732C305.576 173.013 306.466 173.484 307.274 173.832C310.159 175.075 313.033 176.006 316.032 176.975C320.387 178.381 324.704 179.36 329.141 180.463C334.777 181.864 340.359 183.755 346.048 184.913C355.776 186.893 365.374 189.376 375.274 190.397C383.587 191.254 391.944 191 400.287 191C403.837 191 407.427 191.163 410.973 191.026C413.49 190.929 415.916 190.476 418.439 190.495C420.767 190.513 422.336 190.831 424.52 191.725C426.35 192.474 428.166 193.171 430.094 193.611C432.1 194.069 433.814 195.098 435.748 195.706C439.094 196.758 442.497 197.543 445.956 198.055C447.054 198.218 455.056 199.713 454.445 200.89C451.624 201.671 448.692 202.092 445.821 202.641C439.096 203.928 432.416 205.366 425.665 206.518C416.707 208.047 407.701 208.91 398.634 209.478C376.944 210.837 355.183 211.185 333.46 211.727C317.253 212.131 301.027 212.487 284.841 213.427C272.805 214.126 260.795 215.095 248.774 216C223.1 217.934 197.323 219.51 171.579 220.137C159.364 220.435 147.137 220.281 134.934 219.678C122.144 219.046 109.489 217.371 96.826 215.585C79.695 213.17 62.415 211.55 45.466 208.002C38.808 206.608 32.247 204.901 25.704 203.046C19.124 201.181 12.005 199.44 6.02002 196.033C-1.31598 191.857 -8.70498 186.474 -12.74 178.887C-15.661 173.394 -17.219 167.322 -18.438 161.265C-18.975 158.597 -19.479 155.961 -19.458 153.229C-19.442 151.126 -19.118 149.083 -18.819 147.003C-18.444 144.393 -17.903 141.844 -17.486 139.247C-17.096 136.815 -16.902 134.332 -16.425 131.915C-15.712 128.306 -13.4 125.121 -13.319 121.361C-13.302 120.58 -13.462 119.778 -13.334 119.002C-13.116 117.671 -12.503 116.674 -11.66 115.901Z" fill="url(#paint2_linear_3_449)"/>
</g>
<defs>
<linearGradient id="paint0_linear_3_449" x1="470.304" y1="108.667" x2="470.304" y2="180.667" gradientUnits="userSpaceOnUse">
<stop stop-color="#102D52"/>
<stop offset="1" stop-color="#124162"/>
</linearGradient>
<linearGradient id="paint1_linear_3_449" x1="246.826" y1="146.5" x2="246.826" y2="47.9948" gradientUnits="userSpaceOnUse">
<stop stop-color="#102D52"/>
<stop offset="1" stop-color="#0F122E"/>
</linearGradient>
<linearGradient id="paint2_linear_3_449" x1="217.51" y1="187" x2="217.51" y2="88.8357" gradientUnits="userSpaceOnUse">
<stop stop-color="#102D52"/>
<stop offset="1" stop-color="#0F122E"/>
</linearGradient>
</defs>
</svg>
