<svg width="750" height="175" viewBox="0 0 750 175" fill="none" xmlns="http://www.w3.org/2000/svg">
<g id="layer_7">
<path id="Vector" d="M731.544 38.994C731.533 37.42 731.753 35.401 732.488 33.987C732.715 33.551 732.72 33.466 733.102 33.127C733.629 32.659 734.423 32.773 734.899 32.387C735.493 31.905 736.008 30.776 736.038 30.037C736.073 29.183 735.2 28.344 735.465 27.464C735.612 26.974 735.994 26.884 736.247 26.481C737.1 25.118 738.605 23.266 737.398 21.723C737.035 21.259 736.407 20.928 735.988 20.516C735.438 19.975 735.11 19.318 734.514 18.864C733.19 17.857 731.535 17.125 730.333 15.991C729.306 15.022 728.506 13.848 727.426 12.901C726.413 12.013 725.587 11.084 724.847 9.95203C723.498 7.89003 722.775 8.02703 720.483 8.23503C718.934 8.37603 717.604 7.57203 716.475 6.53203C713.799 4.06903 711.716 1.65503 707.993 0.832032C705.464 0.273032 701.886 1.06403 699.527 2.07803C697.688 2.86803 695.978 3.96503 694.236 4.93603C692.479 5.91503 690.828 6.72403 689.682 8.46603C687.774 11.366 688.032 14.619 687.992 17.913C687.963 20.292 689.008 22.594 688.428 25.023C687.833 27.515 686.392 27.748 684.378 28.601C683.49 28.977 682.477 29.613 681.773 30.253C681.065 30.896 680.809 31.748 680.216 32.5C679.775 33.06 679.121 33.914 678.482 34.253C677.465 34.791 675.838 34.134 674.803 33.777C672.886 33.117 671.29 32.435 669.23 32.45C667.299 32.464 665.801 32.936 664.042 33.747C661.777 34.792 659.401 35.81 657.518 37.455C656.019 38.765 654.92 40.019 653.919 41.732C652.911 43.457 652.187 45.426 651.028 47.041C649.348 49.381 646.456 51.049 643.542 51.068C641.477 51.082 639.645 50.413 637.818 49.544C636.423 48.88 635.284 48.457 633.742 48.729C631.317 49.156 628.968 49.313 626.525 49.602C621.916 50.147 617.82 52.216 613.314 53.206C609.697 54.001 606.091 54.564 602.428 55.076C599.78 55.446 597.003 56.519 594.547 57.563C591.568 58.829 588.761 59.672 585.571 60.273C580.126 61.3 574.616 62.018 569.153 63.002C565.773 63.611 562.379 64.097 559.063 65.005C555.371 66.016 551.686 66.271 547.918 66.792C542.715 67.511 537.723 69.302 532.504 69.936C525.969 70.73 519.18 68.633 512.758 67.793C507.119 67.055 501.616 66.504 495.937 66.502C494.185 66.501 492.42 66.41 490.672 66.537C488.687 66.681 486.823 67.329 484.831 67.211C480.729 66.969 476.589 66.717 472.503 66.241C471.502 66.124 465.998 65.647 466.517 67.731C466.811 68.913 470.019 69.471 470.963 69.749C473.446 70.479 475.901 71.14 478.463 71.522C483.016 72.201 487.423 71.515 492.012 71.496C496.343 71.478 500.297 72.652 504.557 73.149C511.253 73.929 517.816 73.166 524.506 72.963C528.076 72.855 531.594 73.448 535.155 73.526C538.433 73.598 541.723 73.499 545.002 73.5C547.88 73.501 550.851 73.262 553.712 73.601C554.505 73.695 557.295 73.846 557.522 74.988C557.714 75.957 555.31 76.572 554.722 76.773C552.035 77.693 549.223 77.406 546.444 77.769C542.806 78.244 539.399 78.921 536.058 80.438C534.463 81.162 530.869 81.873 530.083 83.521C530.54 85.236 534.424 84.509 535.5 84.503C539.773 84.478 544.029 84.636 548.288 84.212C554.973 83.546 561.671 83.23 568.378 82.874C574.783 82.535 581.172 81.923 587.574 81.587C602.086 80.824 616.819 82.689 631.263 80.753C638.625 79.766 645.1 76.267 652.307 74.772C657.371 73.721 662.167 74.007 667.278 74.498C671.116 74.867 674.989 74.982 678.774 75.755C682.108 76.436 685.205 76.497 688.605 76.51C691.654 76.522 694.628 76.075 697.664 75.976C700.121 75.896 703.121 75.547 705.347 76.747C706.801 77.53 707.326 78.624 706.997 80.255C706.682 81.818 705.618 83.264 703.912 83.321C702.043 83.384 699.974 82.825 698.117 82.624C696.906 82.493 695.712 82.385 694.508 82.227C693.81 82.135 692.835 81.799 692.233 82.353C692.68 82.896 693.79 83.606 694.408 83.988C696.543 85.309 699.499 85.836 701.921 86.158C706.134 86.719 710.263 86.002 714.465 85.627C717.158 85.386 720.35 84.734 723.065 85.063C724.598 85.248 726.111 85.641 727.637 85.879C731.267 86.446 734.899 87.125 738.584 87.034C742.757 86.931 746.954 86.333 751.102 85.876C755.771 85.362 760.487 85.201 765.136 84.522C771.03 83.661 776.797 81.967 782.706 81.251C788.127 80.594 793.861 80.821 799.294 81.254C805.436 81.743 811.466 81.357 817.525 80.207C820.507 79.641 823.487 78.747 826.526 78.549C829.326 78.367 832.144 78.48 834.947 78.5C839.769 78.535 844.196 78.101 848.944 77.235C853.52 76.4 858.187 76.204 862.811 75.736C866.684 75.344 870.776 74.955 874.664 74.98C878.341 75.003 882.09 75.224 885.744 74.749C887.2 74.56 888.629 74.461 890.094 74.497C890.743 74.513 892.146 74.859 892.372 74.009C892.082 73.437 891.04 73.056 890.492 72.725C888.485 71.515 886.526 71.021 884.271 70.487C881.6 69.855 878.892 69.372 876.233 68.701C873.684 68.058 871.267 67.127 868.663 66.721C866.66 66.408 863.367 67.22 861.794 65.734C861.057 65.037 860.586 63.969 860.017 63.125C859.274 62.024 858.226 61.49 857.455 60.524C856.676 59.547 856.814 58.09 856.417 56.962C856.06 55.947 855.512 55.568 854.65 54.99C853.521 54.232 852.294 53.684 851.129 52.99C849.905 52.261 848.934 52.198 847.593 51.877C846.038 51.504 844.627 50.73 843.027 50.5C840.922 50.197 836.274 49.655 835.333 47.291C834.884 46.163 835.656 44.611 835.881 43.425C836.208 41.698 836.722 39.696 836.498 37.953C836.196 35.608 834.917 33.653 833.894 31.637C833.005 29.885 831.871 28.295 831.104 26.476C830.406 24.821 829.783 23.494 828.773 21.969C828.072 20.911 827.109 19.907 826.478 18.813C825.57 17.239 825.582 15.324 824.508 13.811C823.486 12.372 821.494 11.371 819.955 10.513C817.364 9.07103 814.569 7.74703 811.884 6.47603C807.638 4.46503 803.224 2.58503 798.533 4.03003C795.938 4.83003 792.892 6.67803 790.898 8.51603C789.345 9.94703 788.627 11.702 787.544 13.477C786.206 15.67 784.595 17.679 782.983 19.671C782.226 20.606 780.683 23.224 779.471 23.468C777.67 23.831 776.693 21.179 774.994 20.827C774.311 20.685 773.704 20.967 773.007 21.013C772.27 21.061 771.497 20.994 770.758 20.996C769.71 20.999 769.507 20.911 769.003 21.958C768.531 22.939 768.139 23.906 767.907 24.969C767.026 24.768 766.316 23.413 765.722 22.743C764.344 21.189 763.032 21.062 761.144 20.502C757.681 19.475 753.647 18.594 750.465 20.679C748.271 22.116 746.739 23.863 745.314 26.035C744.306 27.572 744.598 28.74 744.532 30.455C744.479 31.829 743.781 33.184 743.382 34.509C743.132 35.339 742.602 37.26 741.894 37.908C740.916 38.803 738.714 38.786 737.497 39.497C737.255 39.638 737.07 39.629 736.856 39.847C736.644 40.063 736.643 40.56 736.469 40.71C735.962 41.145 735.259 40.992 734.514 40.996C732.132 41.012 731.552 40.178 731.544 38.994Z" fill="url(#paint0_linear_3_404)"/>
<path id="Vector_2" d="M-7.422 74.715C-6.368 73.921 -5.319 73.107 -4.315 72.291C-1.361 69.891 1.837 67.754 4.94 65.525C7.559 63.644 8.19101 61.751 9.67101 59.003C10.283 57.867 10.721 57.016 11.608 56.119C12.124 55.598 12.821 55.178 13.301 54.6C14.561 53.08 14.953 51.04 16.148 49.466C17.164 48.128 18.113 47.077 18.977 45.606C21.988 40.479 26.69 36.264 32.635 35.159C39.136 33.951 44.884 36.944 51.351 36.849C54.031 36.809 56.729 36.622 59.366 37.17C62.494 37.82 65.701 39.776 68.383 41.501C71.528 43.524 75.423 45.989 77.049 49.471C78.788 53.196 79.633 57.825 80.075 61.885C80.529 66.056 81.341 69.917 81.334 74.13C81.331 75.714 81.314 77.3 81.329 78.883C81.346 80.706 81.753 81.225 82.522 82.837C83.492 84.87 83.487 87.346 85.321 88.867C87.518 90.688 90.684 91.5 93.48 91.532C95.232 91.552 96.544 91.089 98.199 90.639C99.662 90.241 100.078 90.232 101.341 91.131C102.471 91.936 103.365 92.857 104.332 93.841C105.111 94.634 106.289 95.221 106.866 96.136C108.133 98.147 107.963 101.116 107.986 103.351C108.022 106.935 110.079 109.684 111.871 112.622C113.345 115.04 113.189 117.485 113.92 120.136C114.688 122.923 116.072 125.599 117.991 127.78C121.431 131.688 126.698 131.385 130.686 134.161C134.596 136.883 139.204 138.355 143.97 138.734C146.915 138.968 150.425 138.499 153.364 138.049C156.054 137.638 158.715 136.509 160.867 134.877C165.23 131.57 167.558 126.643 172.686 124.473C177.069 122.617 181.377 120.762 185.342 118.093C187.086 116.919 188.778 115.364 190.684 114.435C192.28 113.657 194.289 113.435 196.002 113.016C200.543 111.905 204.537 109.46 209.023 108.121C211.272 107.45 213.649 107.226 215.992 107.514C218.358 107.805 219.554 108.914 221.258 110.5C222.521 111.676 223.858 112.451 225.218 113.451C226.904 114.69 227.526 117.76 228.335 119.607C229.027 121.185 229.637 122.86 230.781 124.181C232.273 125.904 233.555 126.887 234.816 128.832C237.281 132.638 240.888 134.514 245.352 134.85C247.173 134.987 248.981 135.209 250.692 135.883C252.311 136.52 253.499 137.722 255.254 138.065C260.376 139.066 265.447 136.932 270.069 140.316C271.885 141.646 273.25 142.89 275.355 143.836C278.486 145.243 281.21 145.541 284.617 145.512C287.901 145.484 291.471 145.053 294.728 145.615C297.064 146.018 299.296 147.112 301.646 147.447C303.666 147.735 304.947 147.718 306.786 148.75C308.701 149.824 310.306 151.714 311.925 153.178C313.643 154.732 314.444 155.206 316.516 155.98C318.86 156.855 320.138 159.005 322.327 160.189C325.488 161.899 328.88 159.947 332.146 160.281C334.4 160.512 336.543 161.027 338.666 161.743C340.671 162.419 342.736 163.494 344.77 164.016C347.477 164.711 350.289 165.241 353.05 165.698C355.121 166.041 358.162 165.838 359.99 166.981C360.029 168.577 356.399 169.2 355.272 169.516C350.431 170.873 344.794 171.341 339.808 171.68C331.872 172.22 323.944 172.878 315.986 172.878C303.254 172.878 290.486 171.992 277.765 171.514C262.348 170.935 246.951 170.106 231.527 169.666C211.609 169.099 191.701 169.165 171.786 168.734C151.828 168.302 132.017 166.613 112.028 166.78C91.541 166.952 71.202 167.613 50.72 166.677C35.381 165.976 20.012 165.656 4.685 164.797C-9.644 163.994 -23.834 161.819 -38.123 160.606C-57.899 158.927 -77.943 158.835 -97.784 158.83C-104.701 158.828 -111.618 158.813 -118.535 158.828C-124.653 158.841 -130.841 158.999 -136.91 158.031C-140.773 157.415 -144.523 156.33 -148.411 155.799C-150.821 155.47 -152.984 155.579 -155.289 154.844C-148.647 153.89 -142.553 150.941 -136.036 149.498C-132.142 148.635 -128.489 147.576 -124.706 146.311C-121.9 145.373 -118.66 144.68 -116.309 142.788C-112.751 139.924 -112.071 135.868 -109.534 132.414C-107.368 129.466 -103.356 128.382 -101.291 125.368C-99.816 123.216 -99.021 120.574 -98.502 118.045C-97.439 112.87 -96.081 108.119 -93.266 103.548C-89.61 97.611 -85.684 92.349 -79.217 89.405C-75.401 87.668 -71.062 86.983 -66.988 86.106C-63.911 85.444 -61.201 85.392 -58.083 86.119C-53.504 87.187 -48.615 87.788 -44.356 89.833C-41.319 91.291 -38.828 93.914 -35.534 94.708C-33.833 95.118 -31.908 95.625 -30.136 95.396C-28.761 95.218 -25.727 94.853 -24.589 94.063C-23.696 93.443 -23.324 92.253 -22.851 91.346C-22.128 89.958 -21.705 89.288 -20.644 88.123C-18.334 85.589 -16.803 82.69 -14.68 80.074C-14.159 79.432 -13.584 78.835 -12.92 78.339C-11.802 77.502 -10.489 76.968 -9.35699 76.143C-8.71499 75.68 -8.068 75.201 -7.422 74.715Z" fill="url(#paint1_linear_3_404)"/>
<path id="Vector_3" d="M-18.268 59.454C-17.631 59.291 -16.998 59.129 -16.459 58.849C-14.324 57.745 -11.897 57.357 -9.46199 57.582C-1.59399 58.307 4.74001 62.427 10.995 66.963C15.689 70.367 19.031 75.819 20.519 81.342C21.453 84.809 21.669 88.466 21.912 92.046C22.03 93.782 21.549 95.311 21.472 97.022C21.411 98.366 21.501 99.753 21.5 101.1C21.498 103.819 21.353 106.573 21.476 109.288C21.571 111.386 21.779 113.785 23.288 115.32C24.194 116.242 25.162 117.467 26.227 118.207C27.814 119.311 30.023 120.092 31.766 121.001C34.261 122.302 37.351 123.397 40.185 123.545C42.277 123.654 43.051 122.746 44.614 121.49C46.381 120.07 47.674 119.782 49.965 120.116C52.782 120.527 55.436 121.004 58.035 119.523C59.524 118.674 60.497 117.331 61.993 116.49C63.915 115.409 65.795 114.535 67.98 114.115C70.444 113.641 73.972 112.199 76.437 113.181C79.356 114.343 81.745 116.69 84.276 118.474C91.761 123.752 88.688 134.122 91.203 141.571C92.036 144.039 94.114 145.487 96.103 147.001C99.053 149.246 102.356 151.539 105.779 152.961C108.415 154.056 111.633 153.498 114.412 153.501C116.996 153.504 119.373 153.488 121.925 153.89C123.745 154.176 125.612 153.714 127.412 153.966C129.63 154.277 131.312 155.98 132.4 157.847C133.8 160.249 134.834 163.01 135.931 165.565C137.071 168.221 136.427 170.353 133.79 171.754C129.637 173.96 124.369 172.716 119.935 172.567C110.053 172.237 100.224 171.635 90.335 172.272C76.527 173.162 62.838 174.549 48.983 174.546C32.055 174.542 15.347 173.219 -1.45598 171.235C-14.776 169.663 -27.86 166.421 -40.862 163.205C-51.581 160.554 -62.621 160.444 -73.579 159.707C-83.246 159.057 -92.794 157.458 -102.446 156.689C-111.084 156.001 -119.614 154.467 -128.267 153.973C-137.103 153.468 -145.838 153.71 -154.645 154.714C-158.042 155.101 -161.345 155.817 -164.708 156.411C-167.592 157.005 -170.506 157.312 -173.45 157.334C-174.967 157.601 -176.413 157.472 -177.787 156.945C-172.184 155.144 -165.638 153.869 -161.262 149.718C-158.477 147.076 -157.313 144.101 -156.462 140.497C-156.249 139.594 -155.793 138.981 -155.199 138.276C-153.213 135.921 -151.722 133.413 -150.145 130.747C-149.223 129.189 -148.467 127.785 -147.985 126.04C-147.433 124.042 -147.31 122 -146.512 120.067C-146.169 119.235 -145.75 118.1 -145.072 117.465C-143.98 116.444 -142.019 116.17 -140.736 115.467C-139.369 114.718 -138.042 113.879 -136.968 112.747C-135.147 110.826 -134.641 108.752 -133.961 106.24C-132.368 100.355 -129.105 94.885 -124.404 90.894C-122.237 89.054 -119.852 87.724 -117.037 87.157C-113.54 86.453 -109.448 86.215 -105.893 86.066C-95.535 85.632 -87.239 93.28 -77.067 93.921C-74.917 94.057 -71.303 93.784 -70.71 91.295C-70.374 89.885 -70.47 88.423 -70.072 87.011C-69.481 84.916 -68.077 83.515 -66.565 82.014C-64.612 80.075 -62.542 78.522 -60.353 76.868C-58.728 75.64 -57.264 74.206 -55.567 73.074C-54.431 72.316 -53.453 71.615 -52.612 70.513C-51.339 68.845 -50.371 67.872 -48.522 66.845C-47.167 66.092 -45.841 65.243 -44.213 65.517C-42.7 65.771 -41.723 66.883 -40.544 67.735C-38.356 69.316 -36.296 67.367 -33.992 66.727C-32.435 66.295 -30.954 66.178 -29.386 65.638C-28.229 65.24 -26.877 65.179 -25.776 64.643C-24.865 64.2 -24.313 63.364 -23.401 62.971C-22.994 62.796 -22.601 62.932 -22.198 62.625C-21.678 62.228 -21.588 61.52 -21.234 61.007C-20.563 60.039 -19.408 59.745 -18.268 59.454Z" fill="url(#paint2_linear_3_404)"/>
<path id="Vector_4" d="M419.204 130.803C418.992 130.904 418.737 130.852 418.41 130.523C417.852 129.961 418.017 129.313 417.854 128.564C417.782 128.233 417.542 128.006 417.541 127.698C417.541 127.399 417.828 126.966 417.847 126.601C417.895 125.679 418.146 124.912 418.206 124.024C418.304 122.577 418.219 118.344 416.054 118.678C414.505 118.917 411.862 120.406 410.859 118.375C410.189 117.019 411.841 115.064 410.652 113.833C410.18 113.344 409.426 113.023 408.896 112.58C408.148 111.954 407.688 111.691 406.784 111.409C406.184 111.222 405.508 110.889 404.881 110.839C404.273 110.791 403.693 111.06 403.102 111.145C402.166 111.281 401.818 111.634 401.113 112.21C399.727 113.342 397.859 113.713 396.255 114.397C395.368 114.775 394.404 114.727 393.484 114.959C392.519 115.202 392.008 115.805 391.404 116.553C390.65 117.487 389.999 118.421 389.726 119.606C389.334 121.31 389.305 123.126 389.12 124.859C388.967 126.284 388.899 126.976 387.33 126.958C385.85 126.94 383.502 126.503 382.219 127.373C381.166 128.087 380.238 129.077 379.301 129.933C378.456 130.704 377.429 131.241 376.603 132.055C375.314 133.325 374.488 134.814 374.06 136.574C373.596 138.483 373.655 140.222 371.862 141.477C371.014 142.07 369.897 142.295 368.885 142.376C367.569 142.481 366.67 142.006 365.434 141.756C364.556 141.578 363.35 141.538 362.478 141.732C361.143 142.028 360.117 143.088 358.813 143.518C357.061 144.095 355.208 144.083 353.422 144.462C351.906 144.784 350.558 145.292 349.119 145.836C347.321 146.517 345.457 146.343 343.583 146.359C342.918 146.364 342.329 146.349 341.704 146.62C341.105 146.88 340.766 147.324 340.13 147.473C338.755 147.793 337.286 147.074 335.933 147.05C334.684 147.027 333.457 147.428 332.206 147.466C330.929 147.505 329.672 147.354 328.396 147.518C326.487 147.764 324.639 148.181 322.872 148.901C321.067 149.636 318.168 149.423 316.311 149.19C313.461 148.833 310.672 147.867 307.802 147.509C306.045 147.29 304.221 147.45 302.456 147.441C300.728 147.432 299.08 147.395 297.38 147.762C293.545 148.589 289.763 149.888 285.872 150.455C283.808 150.755 281.881 150.556 279.818 150.41C276.816 150.197 273.81 150.276 270.802 150.062C265.146 149.659 259.55 149.607 253.883 149.604C249.943 149.602 246.057 149.47 242.124 149.306C238.651 149.162 235.108 149.731 231.681 150.219C229.749 150.494 227.997 150.876 226.141 151.485C224.485 152.028 222.213 152.516 220.96 153.855C219.192 155.745 223.356 156.071 224.481 156.108C229.076 156.257 233.669 154.899 238.22 155.681C241.573 156.257 244.871 157.338 248.267 157.636C252.022 157.966 255.774 157.107 259.526 157.143C263.579 157.181 267.456 156.473 271.487 156.147C275.676 155.809 280.022 155.986 284.225 156.049C288.271 156.109 292.247 157.826 296.32 157.451C298.465 157.254 300.794 156.859 302.82 157.943C302.949 160.369 295.063 159.859 295.653 161.77C297.281 162.398 299.493 161.49 301.085 161.184C302.765 160.862 304.513 160.768 306.209 160.537C308.412 160.237 310.059 160.972 312.164 161.393C315.725 162.105 319.437 161.961 323.034 162.552C328.249 163.409 333.352 162.957 338.567 162.406C343.606 161.874 349.014 160.86 354.071 161.671C358.162 162.328 362.204 162.39 366.305 162.813C368.612 163.051 370.862 163.24 373.18 163.269C375.166 163.294 377.097 162.715 379.107 162.883C380.24 162.977 381.52 163.063 381.544 164.339C381.552 164.741 381.398 165.144 381.723 165.406C382.157 165.756 383.308 165.154 383.795 165.088C385.396 164.873 387.139 165.057 388.756 165.057C389.84 165.057 390.923 165.056 392.007 165.065C394.041 165.083 396.025 164.7 398.053 164.66C400.456 164.613 402.884 165.067 405.301 165.072C407.519 165.076 409.719 165.078 411.917 164.741C414.88 164.287 417.731 163.324 420.711 162.883C423.624 162.452 426.54 162.077 429.482 161.903C435.395 161.552 441.306 161.208 447.219 160.834C450.346 160.636 453.461 160.352 456.597 160.376C460.187 160.403 463.79 160.091 467.373 160.235C471.294 160.393 475.153 160.546 479.061 160.051C482.247 159.647 485.42 159.114 488.587 158.581C490.788 158.211 492.885 157.856 495.122 157.855C496.846 157.854 498.301 158.15 499.984 158.508C500.98 158.72 502.123 159.127 503.137 158.884C503.329 158.838 504.342 158.496 504.396 158.14C504.506 157.408 502.118 157.179 501.616 157.071C501.668 156.615 502.298 156.557 502.332 156.072C502.355 155.74 501.694 154.812 501.642 154.405C501.425 152.674 502.526 150.91 502.952 149.308C503.284 148.058 503.809 146.207 503.013 145.111C502.629 144.583 502.031 144.269 501.648 143.728C501.242 143.155 501.024 142.364 500.824 141.693C500.374 140.187 500.325 138.473 500.579 136.917C500.806 135.529 500.995 134.429 500.605 133.06C500.439 132.479 500.188 131.977 499.959 131.423C499.616 130.594 499.556 129.552 498.999 128.839C497.089 126.394 495.224 124.058 492.951 121.919C491.777 120.814 490.934 120.405 489.337 120.199C486.265 119.803 483.314 120.853 480.369 121.561C478.527 122.004 476.455 122.356 475.409 124.121C475.033 124.755 474.801 125.55 474.596 126.26C474.418 126.876 474.384 128.179 474.02 128.725C472.954 130.324 471.216 128.116 471.01 126.88C470.561 124.176 472.453 121.808 472.482 119.123C472.504 117.146 472.832 115.259 473.093 113.293C473.39 111.058 473.937 109.301 472.717 107.219C471.855 105.748 470.847 104.596 470.201 102.993C469.36 100.906 469.122 98.678 468.158 96.638C466.287 92.68 462.095 89.631 457.925 88.463C455.935 87.905 453.905 88.376 451.9 88.682C448.419 89.214 444.928 90.35 441.887 92.133C439.933 93.279 437.891 94.297 436.403 96.034C435.618 96.95 434.699 97.899 434.307 99.069C433.897 100.292 434.029 101.626 434.019 102.887C433.997 105.609 433.36 108.335 433.494 111.046C433.532 111.824 433.565 112.54 433.447 113.318C433.222 114.81 432.934 116.688 431.122 116.906C429.276 117.128 427.437 117.163 425.707 118.029C424.78 118.494 423.9 119.306 423.444 120.262C423.023 121.144 423.281 122.195 423.063 123.154C422.763 124.472 422.116 125.516 421.35 126.591C420.999 127.083 420.595 127.435 420.412 128.037C420.212 128.695 420.22 129.191 419.9 129.832C419.705 130.233 419.495 130.663 419.204 130.803Z" fill="url(#paint3_linear_3_404)"/>
</g>
<defs>
<linearGradient id="paint0_linear_3_404" x1="679.421" y1="92.4378" x2="679.421" y2="14.6232" gradientUnits="userSpaceOnUse">
<stop stop-color="#FBB294" stop-opacity="0"/>
<stop offset="1" stop-color="#FFEFEE"/>
</linearGradient>
<linearGradient id="paint1_linear_3_404" x1="102.351" y1="181.5" x2="102.351" y2="57.1975" gradientUnits="userSpaceOnUse">
<stop stop-color="#FBB294" stop-opacity="0"/>
<stop offset="1" stop-color="#FFEFEE"/>
</linearGradient>
<linearGradient id="paint2_linear_3_404" x1="-20.6567" y1="181.853" x2="-20.6567" y2="76.4522" gradientUnits="userSpaceOnUse">
<stop stop-color="#FBB294" stop-opacity="0"/>
<stop offset="1" stop-color="#FFEFEE"/>
</linearGradient>
<linearGradient id="paint3_linear_3_404" x1="362.468" y1="161.104" x2="362.468" y2="107.163" gradientUnits="userSpaceOnUse">
<stop stop-color="#FBB294" stop-opacity="0"/>
<stop offset="1" stop-color="#FFEFEE"/>
</linearGradient>
</defs>
</svg>
