<svg width="750" height="275" viewBox="0 0 750 275" fill="none" xmlns="http://www.w3.org/2000/svg">
<g id="layer_4">
<path id="Vector" d="M384.833 110.303C385.86 109.662 387.021 109.288 388.368 109.396C390.683 109.581 392.848 110.688 395.177 110.922C398.82 111.288 402.869 110.766 406.426 109.966C408.867 109.418 411.023 108.204 413.357 107.39C415.351 106.694 417.289 106.194 419.246 105.338C425.003 102.822 431.118 100.767 436.209 96.999C439.902 94.266 443.561 91.748 447.316 89.145C449.141 87.88 450.983 87.188 452.665 85.681C453.791 84.672 456.184 81.878 457.704 81.637C458.769 81.468 459.102 82.251 459.663 82.988C460.65 84.283 461.699 85.232 462.965 86.308C464.948 87.995 466.561 89.719 468.993 90.72C471.298 91.669 473.766 91.886 476.02 92.985C480.03 94.94 483.655 97.418 488.016 98.527C489.866 98.998 491.468 98.858 493.334 98.961C495.41 99.075 497.24 99.689 499.364 99.671C501.315 99.655 503.759 100.022 505.667 99.607C506.727 99.377 507.198 99.012 508.334 98.991C509.317 98.973 510.245 99.089 511.186 98.847C514.191 98.073 516.341 94.715 518.918 92.995C521.783 91.084 524.919 89.824 527.512 87.516C530.219 85.107 533.122 82.953 536.002 80.747C541.187 76.775 546.499 73.071 551.666 69.079C557.565 64.522 563.076 59.455 568.818 54.698C572.223 51.878 575.34 48.762 578.652 45.843C582.383 42.555 585.734 38.823 589.503 35.594C593.149 32.47 597.105 29.719 600.912 26.8C604.004 24.43 606.454 21.497 609.394 18.988C611.52 17.174 612.425 16.535 614.638 17.833C615.84 18.539 617.178 19.082 618.454 19.632C621.101 20.773 623.411 22.448 625.952 23.794C628.574 25.184 631.256 26.727 633.805 28.247C637.172 30.255 639.983 33.241 643.173 35.532C646.45 37.886 649.85 40.242 653.356 42.246C657.15 44.414 661.489 44.87 665.325 46.989C670.227 49.697 675.042 53.586 680.821 53.71C687.224 53.847 693.616 54.15 699.868 55.795C701.967 56.347 703.686 57.674 705.818 58.193C707.897 58.7 709.977 59.025 712.115 59.026C715.946 59.027 719.607 57.385 723.366 57.649C725.71 57.813 726.82 59.711 728.747 60.95C736.157 65.716 744.238 69.46 751.937 73.728C756.782 76.414 761.787 78.638 767.169 79.956C769.907 80.627 772.33 80.129 775.099 79.689C779.891 78.928 784.63 77.972 789.22 76.36C793.213 74.957 797.101 73.212 801.095 71.783C803.002 71.101 805.768 69.775 807.912 70.269C809.271 70.582 810.103 71.535 810.701 72.83C811.309 74.146 811.318 75.625 811.484 77.034C812.065 81.98 812.743 86.926 813.486 91.849C814.906 101.249 816.007 110.683 817.193 120.115C818.793 132.837 819.979 146.399 816.645 158.974C815.168 164.543 813.281 170.621 809.859 175.304C804.644 182.441 797.835 187.961 790.302 192.481C782.632 197.084 774.48 199.858 765.917 202.304C753.25 205.921 740.421 209.008 727.567 211.895C695.831 219.024 663.438 221.699 631.038 223.55C602.801 225.163 574.662 226.618 546.367 226.397C522.614 226.211 498.525 224.105 475.432 218.283C457.935 213.871 439.769 208.697 424.575 198.748C413.928 191.776 405.135 183.116 395.932 174.467C390.34 169.212 385.336 163.198 380.787 157.012C377.008 151.874 372.671 146.245 371.044 139.985C369.884 135.519 368.612 130.281 369.942 125.723C370.737 122.999 371.615 120.824 373.97 119.225C376.796 117.306 379.772 115.592 381.989 112.941C382.833 111.934 383.761 110.973 384.833 110.303Z" fill="url(#paint0_linear_3_450)"/>
<path id="Vector_2" d="M350.537 113.392C355.017 112.396 359.465 113.699 363.871 114.599C367.203 115.28 370.397 116.419 373.741 117.048C376.852 117.633 380.038 118.048 383.209 118.062C385.745 118.073 388.29 117.255 390.813 117.501C392.569 117.672 394.022 118.609 395.736 118.913C397.173 119.168 398.926 119.337 400.363 119.323C402.387 119.303 403.491 118.33 405.257 117.584C406.577 117.027 408.232 116.72 409.671 116.579C410.897 116.459 411.931 116.77 412.999 117.316C414.35 118.007 414.803 118.115 416.34 117.543C420.764 115.897 425.781 114.039 429.606 111.188C430.577 111.885 431.44 112.649 432.491 113.232C433.702 113.903 434.956 114.31 436.27 114.732C438.617 115.485 440.8 116.489 443.018 117.561C447.141 119.554 451.698 119.775 455.79 121.751C458.504 123.061 461.085 124.613 463.74 126.034C466.535 127.529 469.309 128.273 472.432 128.792C477.635 129.656 482.807 129.957 487.894 131.475C489.688 132.01 491.439 132.748 493.158 133.489C495.091 134.323 496.69 135.708 498.61 136.536C499.967 137.121 501.552 137.687 503.012 137.925C504.6 138.184 506.215 137.889 507.809 138.041C509.137 138.168 510.409 138.628 511.75 138.498C513.371 138.342 515.073 137.55 516.559 136.913C519.646 135.59 523.304 133.217 526.746 133.727C527.989 133.911 529.131 134.026 530.232 134.515C532.93 135.712 534.853 138.048 537.464 139.413C539.853 140.662 543.649 141.933 546.375 142.046C549.411 142.171 552.275 139.135 554.572 137.522C557.479 135.479 560.431 133.639 563.708 132.253C567.127 130.807 570.718 130.137 574.276 129.138C580.559 127.373 586.399 124.537 592.582 122.496C599.819 120.107 607.266 118.402 614.493 116.014C622.304 113.432 628.134 107 634.536 102.089C640.089 97.83 645.448 93.13 651.482 89.543C652.127 89.16 653.309 88.203 654.046 88.067C654.715 87.944 654.579 88.158 655.078 88.345C656.201 88.764 657.152 89.626 658.208 90.181C660.012 91.129 661.837 92.077 663.655 93.003C669.077 95.764 675.369 96.362 680.976 98.728C683.932 99.976 687.013 100.916 689.938 102.233C693.286 103.741 696.381 105.685 699.438 107.707C701.646 109.168 704.038 110.267 706.39 111.47C708.887 112.747 711.39 114.095 714.28 114.109C716.414 114.119 718.524 113.413 720.623 113.112C722.975 112.774 725.36 112.533 727.735 112.479C729.495 112.439 731.2 112.394 732.877 112.975C734.312 113.472 735.614 114.046 737.166 114.084C739.525 114.141 741.797 113.287 744.02 112.622C747.107 111.699 750.297 111.231 753.399 110.366C757.565 109.203 762.729 107.592 766.157 111.085C768.226 113.193 769.613 116.006 770.915 118.627C773.532 123.899 776.081 129.211 778.235 134.691C779.857 138.818 781.396 143.031 782.539 147.317C783.805 152.064 782.372 156.332 779.338 160.077C775.965 164.239 771.577 166.848 767.01 169.515C761.922 172.486 756.64 175.148 751.223 177.481C735.873 184.091 719.544 188.364 703.403 192.523C695.152 194.649 686.826 196.786 678.447 198.361C667.708 200.379 656.829 201.448 645.975 202.576C629.569 204.282 613.173 206.008 596.746 207.499C558.865 210.938 521.067 215.132 483.037 216.566C465.989 217.209 448.847 218.075 431.835 216.486C416.366 215.041 400.878 212.118 386.989 204.924C371.279 196.786 355.6 186.352 346.103 170.992C341.039 162.801 340.208 153.746 339.97 144.333C339.856 139.821 340.971 135.554 342.233 131.253C343.457 127.082 344.372 122.803 346 118.76C346.464 117.608 347.004 116.454 347.517 115.334C347.623 115.103 347.528 114.853 347.701 114.63C348.277 113.888 349.531 113.628 350.389 113.427C350.438 113.414 350.488 113.403 350.537 113.392Z" fill="url(#paint1_linear_3_450)"/>
<path id="Vector_3" d="M513.915 198.025C513.484 195.906 512.772 193.676 510.879 193.724C509.848 193.75 509.269 194.372 508.148 194.096C506.548 193.702 504.832 192.483 503.38 191.711C496.613 188.112 490.494 182.662 483.031 180.866C480.852 180.342 479.458 179.055 477.666 177.796C475.769 176.464 473.589 176.396 471.649 175.307C469.908 174.329 468.402 172.217 466.868 170.851C464.797 169.006 462.529 167.405 460.498 165.502C458.768 163.881 456.976 162.642 455 161.331C453.098 160.07 451.456 158.204 449.521 157.115C448.02 156.271 445.824 156.168 444.482 154.917C443.491 153.993 443.097 152.488 442.201 151.452C440.974 150.033 439.922 149.898 438.301 149.242C434.767 147.812 432.569 144.175 429.702 141.816C426.998 139.592 423.679 137.938 421.134 135.534C418.303 132.86 415.741 129.74 412.983 126.964C410.423 124.386 407.862 122.077 405.506 119.302C404.376 117.972 402.872 116.165 400.988 116.307C399.817 116.395 399.18 117.006 398.168 117.5C396.341 118.392 394.823 119.872 393.184 121.164C391.993 122.103 391.454 122.575 390.152 121.844C389.276 121.352 388.367 120.26 387.628 119.594C384.131 116.446 380.209 113.718 376.412 110.944C372.648 108.194 369.563 104.806 366.167 101.64C361.479 97.268 356.715 93.136 352.29 88.482C350.219 86.303 348.053 84.17 346.059 81.925C343.843 79.432 342.014 76.595 339.661 74.228C337.072 71.623 333.974 70.385 331.004 68.382C327.879 66.275 325.806 63.435 323.187 60.818C321.141 58.774 318.292 57.279 316.499 55.065C314.513 52.612 312.862 50.208 310.372 48.169C307.731 46.005 305.258 43.89 302.821 41.5C301.366 40.073 300.243 38.439 298.835 37.015C297.243 35.404 296.17 33.53 295.018 31.536C293.544 28.985 291.648 26.627 290.023 24.164C287.845 20.862 285.606 17.597 283.502 14.245C282.575 12.768 281.602 11.082 280.346 9.86199C279.487 9.02799 278.544 8.82699 277.539 8.24899C276.112 7.42899 274.999 6.004 273.745 4.949C273.049 4.364 272.586 3.499 272.013 2.8C271.281 1.907 270.566 1.55499 269.49 1.24499C268.497 0.95899 267.843 0.402989 267.008 1.12199C266.429 1.62099 266.066 2.20499 265.386 2.62399C265.043 2.83499 264.748 2.95899 264.468 3.21899C263.994 3.65999 263.584 4.18099 263.05 4.55499C262.557 4.90099 262.167 4.86199 261.623 4.99099C260.963 5.14699 260.36 5.66699 259.792 6.02099C259.101 6.45099 258.408 6.87599 257.713 7.29899C255.031 8.93099 252.326 10.524 249.652 12.169C246.785 13.933 244.113 15.994 241.228 17.73C239.979 18.482 238.572 18.993 237.341 19.748C237.114 19.887 236.951 20.018 236.805 20.242C236.546 20.639 236.504 21.02 236.088 21.317C235.665 21.617 235.002 21.791 234.484 21.753C232.671 21.619 230.996 19.758 230.24 18.238C229.719 17.192 229.167 17.046 228.07 16.687C227.174 16.394 226.309 15.956 225.513 16.551C225.063 16.888 224.714 17.329 224.269 17.677C223.372 18.378 222.772 19.185 221.98 19.978C220.653 21.307 219.139 22.371 217.489 23.255C216.108 23.995 214.727 24.663 213.313 25.299C211.865 25.95 211.121 27.601 209.696 28.218C209.12 28.467 208.524 28.47 207.951 28.774C204.129 30.802 200.62 34.15 196.632 35.82C192.393 37.595 187.701 38.352 183.397 40.051C180.969 41.009 178.04 41.167 175.73 42.174C173.105 43.318 170.712 46.073 168.122 47.543C166.812 48.286 165.582 49.171 164.004 49.145C161.857 49.11 161.1 47.76 159.2 47.173C156.528 46.348 154.386 47.844 152.045 48.976C147.922 50.969 144.627 52.278 139.981 52.045C136.264 51.858 132.349 51.369 128.685 50.609C127.588 50.381 126.59 49.992 125.449 50.14C122.066 50.577 119.529 54.031 116.901 55.879C107.122 62.754 93.393 63.069 82.007 64.623C73.644 65.764 65.244 66.545 56.922 67.977C50.035 69.162 43.229 71.007 36.282 71.778C24.252 73.112 12.742 76.185 0.926003 78.623C-3.009 79.435 -7.025 80.287 -10.871 81.451C-14.621 82.586 -17.858 84.478 -21.446 85.95C-24.922 87.376 -29.206 87.563 -32.27 89.726C-37.028 93.084 -34.003 97.537 -32.592 101.797C-30.707 107.49 -31.559 114.397 -31.056 120.345C-30.307 129.199 -29.447 138.305 -27.175 146.925C-25.399 153.663 -22.824 161.452 -18.535 166.953C-14.741 171.82 -10.543 175.404 -5.466 178.834C12.75 191.143 34.931 196.207 55.448 203.488C81.282 212.656 106.734 222.752 132.828 231.19C143.149 234.528 153.491 237.859 163.909 240.887C179.14 245.313 194.695 248.476 210.044 252.434C245.859 261.669 281.148 273.392 318.424 274.655C335.118 275.221 351.888 274.09 368.437 271.834C385.711 269.479 402.733 265.587 419.126 259.63C426.446 256.97 433.914 254.016 440.807 250.414C445.612 247.904 450.254 245.092 455.034 242.539C462.024 238.805 469.051 235.412 475.735 231.139C483.927 225.902 492.175 221.323 501.027 217.336C506.227 214.994 511.355 211.778 514.643 207.043C516.668 204.127 515.248 203.437 514.512 200.992C514.3 200.289 514.149 199.173 513.915 198.025Z" fill="url(#paint2_linear_3_450)"/>
</g>
<defs>
<linearGradient id="paint0_linear_3_450" x1="594.075" y1="29.4999" x2="594.075" y2="87.5538" gradientUnits="userSpaceOnUse">
<stop stop-color="#2F4C6D"/>
<stop offset="1" stop-color="#3C5473"/>
</linearGradient>
<linearGradient id="paint1_linear_3_450" x1="561.479" y1="134" x2="561.479" y2="173.051" gradientUnits="userSpaceOnUse">
<stop stop-color="#2F4C6D"/>
<stop offset="1" stop-color="#3C5473"/>
</linearGradient>
<linearGradient id="paint2_linear_3_450" x1="240.419" y1="9.66669" x2="240.419" y2="151" gradientUnits="userSpaceOnUse">
<stop stop-color="#102D52"/>
<stop offset="1" stop-color="#124162"/>
</linearGradient>
</defs>
</svg>
